<?xml version="1.0" encoding="utf-8" standalone="no"?>
<!DOCTYPE svg PUBLIC "-//W3C//DTD SVG 1.1//EN"
  "http://www.w3.org/Graphics/SVG/1.1/DTD/svg11.dtd">
<svg xmlns:xlink="http://www.w3.org/1999/xlink" width="720pt" height="266.4pt" viewBox="0 0 720 266.4" xmlns="http://www.w3.org/2000/svg" version="1.1">
 <metadata>
  <rdf:RDF xmlns:dc="http://purl.org/dc/elements/1.1/" xmlns:cc="http://creativecommons.org/ns#" xmlns:rdf="http://www.w3.org/1999/02/22-rdf-syntax-ns#">
   <cc:Work>
    <dc:type rdf:resource="http://purl.org/dc/dcmitype/StillImage"/>
    <dc:date>2025-03-13T14:44:07.226720</dc:date>
    <dc:format>image/svg+xml</dc:format>
    <dc:creator>
     <cc:Agent>
      <dc:title>Matplotlib v3.5.3, https://matplotlib.org/</dc:title>
     </cc:Agent>
    </dc:creator>
   </cc:Work>
  </rdf:RDF>
 </metadata>
 <defs>
  <style type="text/css">*{stroke-linejoin: round; stroke-linecap: butt}</style>
 </defs>
 <g id="figure_1">
  <g id="patch_1">
   <path d="M 0 266.4 
L 720 266.4 
L 720 0 
L 0 0 
z
" style="fill: #ffffff"/>
  </g>
  <g id="axes_1">
   <g id="patch_2">
    <path d="M 90 237.096 
L 648 237.096 
L 648 31.968 
L 90 31.968 
z
" style="fill: #ffffff"/>
   </g>
   <g id="matplotlib.axis_1">
    <g id="xtick_1">
     <g id="line2d_1">
      <path d="M 115.363636 237.096 
L 115.363636 31.968 
" clip-path="url(#p5181bc260c)" style="fill: none; stroke: #b0b0b0; stroke-width: 0.8; stroke-linecap: square"/>
     </g>
     <g id="line2d_2">
      <defs>
       <path id="mf32cac09c3" d="M 0 0 
L 0 3.5 
" style="stroke: #000000; stroke-width: 0.8"/>
      </defs>
      <g>
       <use xlink:href="#mf32cac09c3" x="115.363636" y="237.096" style="stroke: #000000; stroke-width: 0.8"/>
      </g>
     </g>
     <g id="text_1">
      <!-- 0 -->
      <g transform="translate(112.182386 251.694438)scale(0.1 -0.1)">
       <defs>
        <path id="DejaVuSans-30" d="M 2034 4250 
Q 1547 4250 1301 3770 
Q 1056 3291 1056 2328 
Q 1056 1369 1301 889 
Q 1547 409 2034 409 
Q 2525 409 2770 889 
Q 3016 1369 3016 2328 
Q 3016 3291 2770 3770 
Q 2525 4250 2034 4250 
z
M 2034 4750 
Q 2819 4750 3233 4129 
Q 3647 3509 3647 2328 
Q 3647 1150 3233 529 
Q 2819 -91 2034 -91 
Q 1250 -91 836 529 
Q 422 1150 422 2328 
Q 422 3509 836 4129 
Q 1250 4750 2034 4750 
z
" transform="scale(0.015625)"/>
       </defs>
       <use xlink:href="#DejaVuSans-30"/>
      </g>
     </g>
    </g>
    <g id="xtick_2">
     <g id="line2d_3">
      <path d="M 223.087724 237.096 
L 223.087724 31.968 
" clip-path="url(#p5181bc260c)" style="fill: none; stroke: #b0b0b0; stroke-width: 0.8; stroke-linecap: square"/>
     </g>
     <g id="line2d_4">
      <g>
       <use xlink:href="#mf32cac09c3" x="223.087724" y="237.096" style="stroke: #000000; stroke-width: 0.8"/>
      </g>
     </g>
     <g id="text_2">
      <!-- 1000 -->
      <g transform="translate(210.362724 251.694438)scale(0.1 -0.1)">
       <defs>
        <path id="DejaVuSans-31" d="M 794 531 
L 1825 531 
L 1825 4091 
L 703 3866 
L 703 4441 
L 1819 4666 
L 2450 4666 
L 2450 531 
L 3481 531 
L 3481 0 
L 794 0 
L 794 531 
z
" transform="scale(0.015625)"/>
       </defs>
       <use xlink:href="#DejaVuSans-31"/>
       <use xlink:href="#DejaVuSans-30" x="63.623047"/>
       <use xlink:href="#DejaVuSans-30" x="127.246094"/>
       <use xlink:href="#DejaVuSans-30" x="190.869141"/>
      </g>
     </g>
    </g>
    <g id="xtick_3">
     <g id="line2d_5">
      <path d="M 330.811811 237.096 
L 330.811811 31.968 
" clip-path="url(#p5181bc260c)" style="fill: none; stroke: #b0b0b0; stroke-width: 0.8; stroke-linecap: square"/>
     </g>
     <g id="line2d_6">
      <g>
       <use xlink:href="#mf32cac09c3" x="330.811811" y="237.096" style="stroke: #000000; stroke-width: 0.8"/>
      </g>
     </g>
     <g id="text_3">
      <!-- 2000 -->
      <g transform="translate(318.086811 251.694438)scale(0.1 -0.1)">
       <defs>
        <path id="DejaVuSans-32" d="M 1228 531 
L 3431 531 
L 3431 0 
L 469 0 
L 469 531 
Q 828 903 1448 1529 
Q 2069 2156 2228 2338 
Q 2531 2678 2651 2914 
Q 2772 3150 2772 3378 
Q 2772 3750 2511 3984 
Q 2250 4219 1831 4219 
Q 1534 4219 1204 4116 
Q 875 4013 500 3803 
L 500 4441 
Q 881 4594 1212 4672 
Q 1544 4750 1819 4750 
Q 2544 4750 2975 4387 
Q 3406 4025 3406 3419 
Q 3406 3131 3298 2873 
Q 3191 2616 2906 2266 
Q 2828 2175 2409 1742 
Q 1991 1309 1228 531 
z
" transform="scale(0.015625)"/>
       </defs>
       <use xlink:href="#DejaVuSans-32"/>
       <use xlink:href="#DejaVuSans-30" x="63.623047"/>
       <use xlink:href="#DejaVuSans-30" x="127.246094"/>
       <use xlink:href="#DejaVuSans-30" x="190.869141"/>
      </g>
     </g>
    </g>
    <g id="xtick_4">
     <g id="line2d_7">
      <path d="M 438.535898 237.096 
L 438.535898 31.968 
" clip-path="url(#p5181bc260c)" style="fill: none; stroke: #b0b0b0; stroke-width: 0.8; stroke-linecap: square"/>
     </g>
     <g id="line2d_8">
      <g>
       <use xlink:href="#mf32cac09c3" x="438.535898" y="237.096" style="stroke: #000000; stroke-width: 0.8"/>
      </g>
     </g>
     <g id="text_4">
      <!-- 3000 -->
      <g transform="translate(425.810898 251.694438)scale(0.1 -0.1)">
       <defs>
        <path id="DejaVuSans-33" d="M 2597 2516 
Q 3050 2419 3304 2112 
Q 3559 1806 3559 1356 
Q 3559 666 3084 287 
Q 2609 -91 1734 -91 
Q 1441 -91 1130 -33 
Q 819 25 488 141 
L 488 750 
Q 750 597 1062 519 
Q 1375 441 1716 441 
Q 2309 441 2620 675 
Q 2931 909 2931 1356 
Q 2931 1769 2642 2001 
Q 2353 2234 1838 2234 
L 1294 2234 
L 1294 2753 
L 1863 2753 
Q 2328 2753 2575 2939 
Q 2822 3125 2822 3475 
Q 2822 3834 2567 4026 
Q 2313 4219 1838 4219 
Q 1578 4219 1281 4162 
Q 984 4106 628 3988 
L 628 4550 
Q 988 4650 1302 4700 
Q 1616 4750 1894 4750 
Q 2613 4750 3031 4423 
Q 3450 4097 3450 3541 
Q 3450 3153 3228 2886 
Q 3006 2619 2597 2516 
z
" transform="scale(0.015625)"/>
       </defs>
       <use xlink:href="#DejaVuSans-33"/>
       <use xlink:href="#DejaVuSans-30" x="63.623047"/>
       <use xlink:href="#DejaVuSans-30" x="127.246094"/>
       <use xlink:href="#DejaVuSans-30" x="190.869141"/>
      </g>
     </g>
    </g>
    <g id="xtick_5">
     <g id="line2d_9">
      <path d="M 546.259986 237.096 
L 546.259986 31.968 
" clip-path="url(#p5181bc260c)" style="fill: none; stroke: #b0b0b0; stroke-width: 0.8; stroke-linecap: square"/>
     </g>
     <g id="line2d_10">
      <g>
       <use xlink:href="#mf32cac09c3" x="546.259986" y="237.096" style="stroke: #000000; stroke-width: 0.8"/>
      </g>
     </g>
     <g id="text_5">
      <!-- 4000 -->
      <g transform="translate(533.534986 251.694438)scale(0.1 -0.1)">
       <defs>
        <path id="DejaVuSans-34" d="M 2419 4116 
L 825 1625 
L 2419 1625 
L 2419 4116 
z
M 2253 4666 
L 3047 4666 
L 3047 1625 
L 3713 1625 
L 3713 1100 
L 3047 1100 
L 3047 0 
L 2419 0 
L 2419 1100 
L 313 1100 
L 313 1709 
L 2253 4666 
z
" transform="scale(0.015625)"/>
       </defs>
       <use xlink:href="#DejaVuSans-34"/>
       <use xlink:href="#DejaVuSans-30" x="63.623047"/>
       <use xlink:href="#DejaVuSans-30" x="127.246094"/>
       <use xlink:href="#DejaVuSans-30" x="190.869141"/>
      </g>
     </g>
    </g>
    <g id="text_6">
     <!-- Iterations -->
     <g transform="translate(345.186719 265.372563)scale(0.1 -0.1)">
      <defs>
       <path id="DejaVuSans-49" d="M 628 4666 
L 1259 4666 
L 1259 0 
L 628 0 
L 628 4666 
z
" transform="scale(0.015625)"/>
       <path id="DejaVuSans-74" d="M 1172 4494 
L 1172 3500 
L 2356 3500 
L 2356 3053 
L 1172 3053 
L 1172 1153 
Q 1172 725 1289 603 
Q 1406 481 1766 481 
L 2356 481 
L 2356 0 
L 1766 0 
Q 1100 0 847 248 
Q 594 497 594 1153 
L 594 3053 
L 172 3053 
L 172 3500 
L 594 3500 
L 594 4494 
L 1172 4494 
z
" transform="scale(0.015625)"/>
       <path id="DejaVuSans-65" d="M 3597 1894 
L 3597 1613 
L 953 1613 
Q 991 1019 1311 708 
Q 1631 397 2203 397 
Q 2534 397 2845 478 
Q 3156 559 3463 722 
L 3463 178 
Q 3153 47 2828 -22 
Q 2503 -91 2169 -91 
Q 1331 -91 842 396 
Q 353 884 353 1716 
Q 353 2575 817 3079 
Q 1281 3584 2069 3584 
Q 2775 3584 3186 3129 
Q 3597 2675 3597 1894 
z
M 3022 2063 
Q 3016 2534 2758 2815 
Q 2500 3097 2075 3097 
Q 1594 3097 1305 2825 
Q 1016 2553 972 2059 
L 3022 2063 
z
" transform="scale(0.015625)"/>
       <path id="DejaVuSans-72" d="M 2631 2963 
Q 2534 3019 2420 3045 
Q 2306 3072 2169 3072 
Q 1681 3072 1420 2755 
Q 1159 2438 1159 1844 
L 1159 0 
L 581 0 
L 581 3500 
L 1159 3500 
L 1159 2956 
Q 1341 3275 1631 3429 
Q 1922 3584 2338 3584 
Q 2397 3584 2469 3576 
Q 2541 3569 2628 3553 
L 2631 2963 
z
" transform="scale(0.015625)"/>
       <path id="DejaVuSans-61" d="M 2194 1759 
Q 1497 1759 1228 1600 
Q 959 1441 959 1056 
Q 959 750 1161 570 
Q 1363 391 1709 391 
Q 2188 391 2477 730 
Q 2766 1069 2766 1631 
L 2766 1759 
L 2194 1759 
z
M 3341 1997 
L 3341 0 
L 2766 0 
L 2766 531 
Q 2569 213 2275 61 
Q 1981 -91 1556 -91 
Q 1019 -91 701 211 
Q 384 513 384 1019 
Q 384 1609 779 1909 
Q 1175 2209 1959 2209 
L 2766 2209 
L 2766 2266 
Q 2766 2663 2505 2880 
Q 2244 3097 1772 3097 
Q 1472 3097 1187 3025 
Q 903 2953 641 2809 
L 641 3341 
Q 956 3463 1253 3523 
Q 1550 3584 1831 3584 
Q 2591 3584 2966 3190 
Q 3341 2797 3341 1997 
z
" transform="scale(0.015625)"/>
       <path id="DejaVuSans-69" d="M 603 3500 
L 1178 3500 
L 1178 0 
L 603 0 
L 603 3500 
z
M 603 4863 
L 1178 4863 
L 1178 4134 
L 603 4134 
L 603 4863 
z
" transform="scale(0.015625)"/>
       <path id="DejaVuSans-6f" d="M 1959 3097 
Q 1497 3097 1228 2736 
Q 959 2375 959 1747 
Q 959 1119 1226 758 
Q 1494 397 1959 397 
Q 2419 397 2687 759 
Q 2956 1122 2956 1747 
Q 2956 2369 2687 2733 
Q 2419 3097 1959 3097 
z
M 1959 3584 
Q 2709 3584 3137 3096 
Q 3566 2609 3566 1747 
Q 3566 888 3137 398 
Q 2709 -91 1959 -91 
Q 1206 -91 779 398 
Q 353 888 353 1747 
Q 353 2609 779 3096 
Q 1206 3584 1959 3584 
z
" transform="scale(0.015625)"/>
       <path id="DejaVuSans-6e" d="M 3513 2113 
L 3513 0 
L 2938 0 
L 2938 2094 
Q 2938 2591 2744 2837 
Q 2550 3084 2163 3084 
Q 1697 3084 1428 2787 
Q 1159 2491 1159 1978 
L 1159 0 
L 581 0 
L 581 3500 
L 1159 3500 
L 1159 2956 
Q 1366 3272 1645 3428 
Q 1925 3584 2291 3584 
Q 2894 3584 3203 3211 
Q 3513 2838 3513 2113 
z
" transform="scale(0.015625)"/>
       <path id="DejaVuSans-73" d="M 2834 3397 
L 2834 2853 
Q 2591 2978 2328 3040 
Q 2066 3103 1784 3103 
Q 1356 3103 1142 2972 
Q 928 2841 928 2578 
Q 928 2378 1081 2264 
Q 1234 2150 1697 2047 
L 1894 2003 
Q 2506 1872 2764 1633 
Q 3022 1394 3022 966 
Q 3022 478 2636 193 
Q 2250 -91 1575 -91 
Q 1294 -91 989 -36 
Q 684 19 347 128 
L 347 722 
Q 666 556 975 473 
Q 1284 391 1588 391 
Q 1994 391 2212 530 
Q 2431 669 2431 922 
Q 2431 1156 2273 1281 
Q 2116 1406 1581 1522 
L 1381 1569 
Q 847 1681 609 1914 
Q 372 2147 372 2553 
Q 372 3047 722 3315 
Q 1072 3584 1716 3584 
Q 2034 3584 2315 3537 
Q 2597 3491 2834 3397 
z
" transform="scale(0.015625)"/>
      </defs>
      <use xlink:href="#DejaVuSans-49"/>
      <use xlink:href="#DejaVuSans-74" x="29.492188"/>
      <use xlink:href="#DejaVuSans-65" x="68.701172"/>
      <use xlink:href="#DejaVuSans-72" x="130.224609"/>
      <use xlink:href="#DejaVuSans-61" x="171.337891"/>
      <use xlink:href="#DejaVuSans-74" x="232.617188"/>
      <use xlink:href="#DejaVuSans-69" x="271.826172"/>
      <use xlink:href="#DejaVuSans-6f" x="299.609375"/>
      <use xlink:href="#DejaVuSans-6e" x="360.791016"/>
      <use xlink:href="#DejaVuSans-73" x="424.169922"/>
     </g>
    </g>
   </g>
   <g id="matplotlib.axis_2">
    <g id="ytick_1">
     <g id="line2d_11">
      <path d="M 90 215.170175 
L 648 215.170175 
" clip-path="url(#p5181bc260c)" style="fill: none; stroke: #b0b0b0; stroke-width: 0.8; stroke-linecap: square"/>
     </g>
     <g id="line2d_12">
      <defs>
       <path id="m33108d74b5" d="M 0 0 
L -3.5 0 
" style="stroke: #000000; stroke-width: 0.8"/>
      </defs>
      <g>
       <use xlink:href="#m33108d74b5" x="90" y="215.170175" style="stroke: #000000; stroke-width: 0.8"/>
      </g>
     </g>
     <g id="text_7">
      <!-- −2 -->
      <g transform="translate(68.257812 218.969393)scale(0.1 -0.1)">
       <defs>
        <path id="DejaVuSans-2212" d="M 678 2272 
L 4684 2272 
L 4684 1741 
L 678 1741 
L 678 2272 
z
" transform="scale(0.015625)"/>
       </defs>
       <use xlink:href="#DejaVuSans-2212"/>
       <use xlink:href="#DejaVuSans-32" x="83.789062"/>
      </g>
     </g>
    </g>
    <g id="ytick_2">
     <g id="line2d_13">
      <path d="M 90 187.219748 
L 648 187.219748 
" clip-path="url(#p5181bc260c)" style="fill: none; stroke: #b0b0b0; stroke-width: 0.8; stroke-linecap: square"/>
     </g>
     <g id="line2d_14">
      <g>
       <use xlink:href="#m33108d74b5" x="90" y="187.219748" style="stroke: #000000; stroke-width: 0.8"/>
      </g>
     </g>
     <g id="text_8">
      <!-- −1 -->
      <g transform="translate(68.257812 191.018967)scale(0.1 -0.1)">
       <use xlink:href="#DejaVuSans-2212"/>
       <use xlink:href="#DejaVuSans-31" x="83.789062"/>
      </g>
     </g>
    </g>
    <g id="ytick_3">
     <g id="line2d_15">
      <path d="M 90 159.269322 
L 648 159.269322 
" clip-path="url(#p5181bc260c)" style="fill: none; stroke: #b0b0b0; stroke-width: 0.8; stroke-linecap: square"/>
     </g>
     <g id="line2d_16">
      <g>
       <use xlink:href="#m33108d74b5" x="90" y="159.269322" style="stroke: #000000; stroke-width: 0.8"/>
      </g>
     </g>
     <g id="text_9">
      <!-- 0 -->
      <g transform="translate(76.6375 163.068541)scale(0.1 -0.1)">
       <use xlink:href="#DejaVuSans-30"/>
      </g>
     </g>
    </g>
    <g id="ytick_4">
     <g id="line2d_17">
      <path d="M 90 131.318895 
L 648 131.318895 
" clip-path="url(#p5181bc260c)" style="fill: none; stroke: #b0b0b0; stroke-width: 0.8; stroke-linecap: square"/>
     </g>
     <g id="line2d_18">
      <g>
       <use xlink:href="#m33108d74b5" x="90" y="131.318895" style="stroke: #000000; stroke-width: 0.8"/>
      </g>
     </g>
     <g id="text_10">
      <!-- 1 -->
      <g transform="translate(76.6375 135.118114)scale(0.1 -0.1)">
       <use xlink:href="#DejaVuSans-31"/>
      </g>
     </g>
    </g>
    <g id="ytick_5">
     <g id="line2d_19">
      <path d="M 90 103.368469 
L 648 103.368469 
" clip-path="url(#p5181bc260c)" style="fill: none; stroke: #b0b0b0; stroke-width: 0.8; stroke-linecap: square"/>
     </g>
     <g id="line2d_20">
      <g>
       <use xlink:href="#m33108d74b5" x="90" y="103.368469" style="stroke: #000000; stroke-width: 0.8"/>
      </g>
     </g>
     <g id="text_11">
      <!-- 2 -->
      <g transform="translate(76.6375 107.167688)scale(0.1 -0.1)">
       <use xlink:href="#DejaVuSans-32"/>
      </g>
     </g>
    </g>
    <g id="ytick_6">
     <g id="line2d_21">
      <path d="M 90 75.418042 
L 648 75.418042 
" clip-path="url(#p5181bc260c)" style="fill: none; stroke: #b0b0b0; stroke-width: 0.8; stroke-linecap: square"/>
     </g>
     <g id="line2d_22">
      <g>
       <use xlink:href="#m33108d74b5" x="90" y="75.418042" style="stroke: #000000; stroke-width: 0.8"/>
      </g>
     </g>
     <g id="text_12">
      <!-- 3 -->
      <g transform="translate(76.6375 79.217261)scale(0.1 -0.1)">
       <use xlink:href="#DejaVuSans-33"/>
      </g>
     </g>
    </g>
    <g id="ytick_7">
     <g id="line2d_23">
      <path d="M 90 47.467616 
L 648 47.467616 
" clip-path="url(#p5181bc260c)" style="fill: none; stroke: #b0b0b0; stroke-width: 0.8; stroke-linecap: square"/>
     </g>
     <g id="line2d_24">
      <g>
       <use xlink:href="#m33108d74b5" x="90" y="47.467616" style="stroke: #000000; stroke-width: 0.8"/>
      </g>
     </g>
     <g id="text_13">
      <!-- 4 -->
      <g transform="translate(76.6375 51.266835)scale(0.1 -0.1)">
       <use xlink:href="#DejaVuSans-34"/>
      </g>
     </g>
    </g>
    <g id="text_14">
     <!-- Episode Mean Return -->
     <g transform="translate(62.178125 187.562469)rotate(-90)scale(0.1 -0.1)">
      <defs>
       <path id="DejaVuSans-45" d="M 628 4666 
L 3578 4666 
L 3578 4134 
L 1259 4134 
L 1259 2753 
L 3481 2753 
L 3481 2222 
L 1259 2222 
L 1259 531 
L 3634 531 
L 3634 0 
L 628 0 
L 628 4666 
z
" transform="scale(0.015625)"/>
       <path id="DejaVuSans-70" d="M 1159 525 
L 1159 -1331 
L 581 -1331 
L 581 3500 
L 1159 3500 
L 1159 2969 
Q 1341 3281 1617 3432 
Q 1894 3584 2278 3584 
Q 2916 3584 3314 3078 
Q 3713 2572 3713 1747 
Q 3713 922 3314 415 
Q 2916 -91 2278 -91 
Q 1894 -91 1617 61 
Q 1341 213 1159 525 
z
M 3116 1747 
Q 3116 2381 2855 2742 
Q 2594 3103 2138 3103 
Q 1681 3103 1420 2742 
Q 1159 2381 1159 1747 
Q 1159 1113 1420 752 
Q 1681 391 2138 391 
Q 2594 391 2855 752 
Q 3116 1113 3116 1747 
z
" transform="scale(0.015625)"/>
       <path id="DejaVuSans-64" d="M 2906 2969 
L 2906 4863 
L 3481 4863 
L 3481 0 
L 2906 0 
L 2906 525 
Q 2725 213 2448 61 
Q 2172 -91 1784 -91 
Q 1150 -91 751 415 
Q 353 922 353 1747 
Q 353 2572 751 3078 
Q 1150 3584 1784 3584 
Q 2172 3584 2448 3432 
Q 2725 3281 2906 2969 
z
M 947 1747 
Q 947 1113 1208 752 
Q 1469 391 1925 391 
Q 2381 391 2643 752 
Q 2906 1113 2906 1747 
Q 2906 2381 2643 2742 
Q 2381 3103 1925 3103 
Q 1469 3103 1208 2742 
Q 947 2381 947 1747 
z
" transform="scale(0.015625)"/>
       <path id="DejaVuSans-20" transform="scale(0.015625)"/>
       <path id="DejaVuSans-4d" d="M 628 4666 
L 1569 4666 
L 2759 1491 
L 3956 4666 
L 4897 4666 
L 4897 0 
L 4281 0 
L 4281 4097 
L 3078 897 
L 2444 897 
L 1241 4097 
L 1241 0 
L 628 0 
L 628 4666 
z
" transform="scale(0.015625)"/>
       <path id="DejaVuSans-52" d="M 2841 2188 
Q 3044 2119 3236 1894 
Q 3428 1669 3622 1275 
L 4263 0 
L 3584 0 
L 2988 1197 
Q 2756 1666 2539 1819 
Q 2322 1972 1947 1972 
L 1259 1972 
L 1259 0 
L 628 0 
L 628 4666 
L 2053 4666 
Q 2853 4666 3247 4331 
Q 3641 3997 3641 3322 
Q 3641 2881 3436 2590 
Q 3231 2300 2841 2188 
z
M 1259 4147 
L 1259 2491 
L 2053 2491 
Q 2509 2491 2742 2702 
Q 2975 2913 2975 3322 
Q 2975 3731 2742 3939 
Q 2509 4147 2053 4147 
L 1259 4147 
z
" transform="scale(0.015625)"/>
       <path id="DejaVuSans-75" d="M 544 1381 
L 544 3500 
L 1119 3500 
L 1119 1403 
Q 1119 906 1312 657 
Q 1506 409 1894 409 
Q 2359 409 2629 706 
Q 2900 1003 2900 1516 
L 2900 3500 
L 3475 3500 
L 3475 0 
L 2900 0 
L 2900 538 
Q 2691 219 2414 64 
Q 2138 -91 1772 -91 
Q 1169 -91 856 284 
Q 544 659 544 1381 
z
M 1991 3584 
L 1991 3584 
z
" transform="scale(0.015625)"/>
      </defs>
      <use xlink:href="#DejaVuSans-45"/>
      <use xlink:href="#DejaVuSans-70" x="63.183594"/>
      <use xlink:href="#DejaVuSans-69" x="126.660156"/>
      <use xlink:href="#DejaVuSans-73" x="154.443359"/>
      <use xlink:href="#DejaVuSans-6f" x="206.542969"/>
      <use xlink:href="#DejaVuSans-64" x="267.724609"/>
      <use xlink:href="#DejaVuSans-65" x="331.201172"/>
      <use xlink:href="#DejaVuSans-20" x="392.724609"/>
      <use xlink:href="#DejaVuSans-4d" x="424.511719"/>
      <use xlink:href="#DejaVuSans-65" x="510.791016"/>
      <use xlink:href="#DejaVuSans-61" x="572.314453"/>
      <use xlink:href="#DejaVuSans-6e" x="633.59375"/>
      <use xlink:href="#DejaVuSans-20" x="696.972656"/>
      <use xlink:href="#DejaVuSans-52" x="728.759766"/>
      <use xlink:href="#DejaVuSans-65" x="793.742188"/>
      <use xlink:href="#DejaVuSans-74" x="855.265625"/>
      <use xlink:href="#DejaVuSans-75" x="894.474609"/>
      <use xlink:href="#DejaVuSans-72" x="957.853516"/>
      <use xlink:href="#DejaVuSans-6e" x="997.216797"/>
     </g>
    </g>
   </g>
   <g id="line2d_25">
    <path d="M 239.784957 237.096 
L 239.784957 31.968 
" clip-path="url(#p5181bc260c)" style="fill: none; stroke-dasharray: 7.4,3.2; stroke-dashoffset: 0; stroke: #000000; stroke-width: 2"/>
   </g>
   <g id="line2d_26">
    <path d="M 364.206278 237.096 
L 364.206278 31.968 
" clip-path="url(#p5181bc260c)" style="fill: none; stroke-dasharray: 7.4,3.2; stroke-dashoffset: 0; stroke: #000000; stroke-width: 2"/>
   </g>
   <g id="line2d_27">
    <path d="M 488.627599 237.096 
L 488.627599 31.968 
" clip-path="url(#p5181bc260c)" style="fill: none; stroke-dasharray: 7.4,3.2; stroke-dashoffset: 0; stroke: #000000; stroke-width: 2"/>
   </g>
   <g id="line2d_28">
    <path d="M 115.363636 193.697332 
L 116.440877 191.273181 
L 117.733566 188.409922 
L 118.487635 187.229006 
L 119.457152 186.148125 
L 120.965289 184.490839 
L 121.719358 183.30698 
L 122.58115 181.454959 
L 124.843356 176.241942 
L 125.920597 174.327037 
L 126.674666 173.454988 
L 128.290527 171.900188 
L 129.260044 170.440938 
L 130.768181 168.152967 
L 131.414525 167.516955 
L 131.953146 167.239682 
L 132.59949 167.159103 
L 133.784455 167.112831 
L 134.323076 166.846595 
L 134.861696 166.333218 
L 135.831213 164.994814 
L 136.693006 163.950567 
L 137.231626 163.591017 
L 137.770247 163.461661 
L 139.924728 163.282554 
L 140.894245 162.73119 
L 142.510106 161.761588 
L 143.695071 161.198597 
L 144.233692 160.573505 
L 144.772312 159.551244 
L 145.526381 157.552427 
L 147.249966 152.734106 
L 147.788587 151.842056 
L 148.327207 151.374929 
L 148.865828 151.230021 
L 149.835344 151.074996 
L 150.266241 150.72443 
L 150.697137 150.069812 
L 151.235757 148.829187 
L 152.312998 145.571773 
L 154.036584 140.549553 
L 158.022375 128.879154 
L 161.900442 116.357509 
L 163.731752 111.782349 
L 164.270372 110.995095 
L 164.808992 110.567322 
L 165.455337 110.379353 
L 166.748026 110.175074 
L 167.178922 109.723547 
L 167.609819 108.896889 
L 168.148439 107.352159 
L 169.010232 104.088534 
L 171.05699 95.921624 
L 171.59561 94.743535 
L 172.13423 94.063264 
L 173.426919 92.697515 
L 174.719608 91.030339 
L 175.150505 90.856633 
L 175.581401 90.967279 
L 176.120022 91.410612 
L 177.520435 92.759867 
L 178.059055 92.973971 
L 178.489952 92.925067 
L 178.920848 92.635719 
L 179.459468 91.958621 
L 180.859881 89.984823 
L 181.506226 89.50966 
L 183.014363 88.620066 
L 183.552984 87.891072 
L 184.091604 86.694623 
L 184.845673 84.359701 
L 186.030638 80.730958 
L 186.784706 79.125741 
L 187.646499 77.802212 
L 189.154636 76.001647 
L 189.908705 74.882636 
L 190.555049 73.49245 
L 191.309118 71.291544 
L 193.032703 65.947814 
L 193.571324 65.033945 
L 193.894496 64.803137 
L 194.217668 64.843103 
L 194.540841 65.164238 
L 194.971737 66.0036 
L 195.618081 67.884144 
L 196.479874 70.361572 
L 196.91077 71.001981 
L 197.126219 71.076532 
L 197.341667 70.963352 
L 197.664839 70.421645 
L 198.095735 69.009831 
L 198.634356 66.29528 
L 200.573389 55.441674 
L 201.004286 54.354289 
L 201.327458 53.960865 
L 201.65063 53.878972 
L 201.973803 54.054637 
L 202.404699 54.609948 
L 202.943319 55.708758 
L 204.774629 60.017149 
L 205.097801 60.261995 
L 205.420973 60.251162 
L 205.744146 60.004948 
L 206.175042 59.378226 
L 206.821387 57.99564 
L 208.975868 52.944403 
L 209.299041 52.806954 
L 209.622213 53.000954 
L 209.945385 53.528449 
L 210.376281 54.681037 
L 211.238074 57.819738 
L 212.099867 60.690456 
L 212.638487 61.83003 
L 213.069384 62.319507 
L 213.50028 62.504894 
L 214.0389 62.482307 
L 214.900693 62.190336 
L 215.439314 61.783295 
L 215.977934 61.093318 
L 216.732003 59.738936 
L 217.486071 57.984404 
L 218.024692 56.205649 
L 218.671036 53.172042 
L 220.394622 44.015589 
L 220.825518 43.013261 
L 221.040966 42.842327 
L 221.256414 42.896484 
L 221.579586 43.384469 
L 222.010483 44.706866 
L 222.656827 47.704607 
L 224.380413 56.363623 
L 225.026757 58.373428 
L 225.457654 59.10343 
L 225.780826 59.330232 
L 226.103998 59.312592 
L 226.534894 58.988645 
L 227.181239 58.124757 
L 228.25848 56.668974 
L 228.7971 56.258806 
L 230.197513 55.487614 
L 230.736134 54.691841 
L 231.382478 53.260991 
L 232.136547 51.058017 
L 233.106064 47.456265 
L 234.183305 43.636736 
L 234.721925 42.452104 
L 235.260546 41.804823 
L 235.90689 41.454347 
L 236.660959 41.292 
L 237.091855 41.367088 
L 237.522751 41.678812 
L 238.061372 42.45398 
L 239.354061 44.643509 
L 239.677233 44.811112 
L 239.784957 101.150654 
L 239.892681 100.876151 
L 240.323578 100.076982 
L 240.64675 99.813014 
L 240.969922 99.844026 
L 241.293094 100.156018 
L 241.723991 100.9411 
L 242.693508 103.434515 
L 243.339852 104.79545 
L 243.770748 105.272365 
L 244.093921 105.349916 
L 244.417093 105.175483 
L 244.847989 104.559536 
L 245.38661 103.229019 
L 246.032954 100.946842 
L 247.110195 96.104038 
L 248.079712 92.052588 
L 248.726056 90.212903 
L 249.264677 89.253479 
L 249.695573 88.825557 
L 250.12647 88.687157 
L 250.557366 88.818947 
L 251.20371 89.353295 
L 251.957779 89.91272 
L 252.388675 89.956625 
L 252.819572 89.772435 
L 254.327709 88.877452 
L 254.758605 88.967016 
L 255.297226 89.348434 
L 255.94357 90.156153 
L 256.589915 91.352111 
L 258.744397 95.810853 
L 259.175293 96.101275 
L 259.606189 96.10488 
L 260.037086 95.82194 
L 260.467982 95.257651 
L 261.114327 93.985516 
L 262.299291 91.589135 
L 262.837912 91.043652 
L 263.268808 90.916461 
L 263.699705 91.018472 
L 264.238325 91.417853 
L 264.776946 92.114033 
L 265.42329 93.3229 
L 267.470048 97.499888 
L 268.224116 98.484368 
L 268.762737 98.855373 
L 269.193633 98.889182 
L 269.732254 98.652654 
L 270.809494 98.085229 
L 271.348115 98.119299 
L 271.886735 98.400225 
L 273.718045 99.630285 
L 274.148941 99.534791 
L 274.579837 99.195862 
L 275.118458 98.458719 
L 275.872526 96.989491 
L 276.949767 94.851071 
L 277.380664 94.435544 
L 277.703836 94.401546 
L 278.027008 94.595447 
L 278.565629 95.260104 
L 279.535145 96.524645 
L 280.18149 97.006786 
L 281.689627 97.900183 
L 282.120524 98.515374 
L 282.659144 99.728325 
L 283.413213 102.133349 
L 285.890867 110.586294 
L 286.429487 111.59116 
L 286.860383 111.987419 
L 287.29128 112.088796 
L 287.722176 111.960283 
L 288.153072 111.60457 
L 288.583969 110.965815 
L 289.122589 109.68247 
L 289.768934 107.439404 
L 290.846175 102.671496 
L 292.03114 97.645656 
L 292.56976 96.091632 
L 293.000656 95.345445 
L 293.431553 95.007419 
L 293.862449 94.955557 
L 295.370586 95.06664 
L 295.909207 94.776147 
L 296.555551 94.14688 
L 300.002722 90.269281 
L 300.433618 90.131423 
L 300.864515 90.240608 
L 301.941756 90.923852 
L 302.911272 91.352478 
L 303.773065 91.514877 
L 304.311686 91.420567 
L 304.850306 91.094149 
L 305.388926 90.448477 
L 305.927547 89.347814 
L 306.466167 87.661603 
L 307.112512 84.859789 
L 308.620649 76.828026 
L 309.482442 73.013356 
L 310.021062 71.569846 
L 310.451959 71.061213 
L 310.775131 71.034237 
L 311.098303 71.258623 
L 311.636923 72.019865 
L 312.929613 74.512792 
L 314.97637 78.758686 
L 316.269059 81.243058 
L 317.130852 83.009143 
L 317.884921 85.149314 
L 318.854437 88.739719 
L 320.685747 95.742122 
L 321.54754 98.121224 
L 322.301608 99.57592 
L 322.840229 100.193476 
L 323.271125 100.336711 
L 323.594297 100.193744 
L 323.917469 99.819863 
L 324.348366 98.963601 
L 324.886986 97.329003 
L 325.533331 94.472002 
L 326.287399 89.815852 
L 328.118709 77.615399 
L 328.765053 75.082736 
L 329.303674 73.862627 
L 329.842294 73.239063 
L 331.242707 72.054344 
L 331.996776 70.837774 
L 333.181741 68.892274 
L 333.612637 68.498067 
L 333.93581 68.41611 
L 334.258982 68.554821 
L 334.689878 69.085828 
L 335.336223 70.39855 
L 336.305739 72.317029 
L 336.952084 73.082829 
L 337.598429 73.529993 
L 338.137049 73.681919 
L 338.567945 73.597129 
L 338.998842 73.278695 
L 339.537462 72.523246 
L 340.183807 71.108667 
L 342.230564 65.923632 
L 342.661461 65.586357 
L 342.984633 65.58528 
L 343.415529 65.877474 
L 343.95415 66.632286 
L 344.708218 68.221723 
L 346.000907 71.074741 
L 346.647252 71.939636 
L 347.616769 72.77262 
L 349.878974 74.550951 
L 350.309871 74.532658 
L 350.740767 74.227936 
L 351.387112 73.359099 
L 351.925732 72.715308 
L 352.248904 72.598406 
L 352.572077 72.772071 
L 352.895249 73.238134 
L 353.433869 74.491815 
L 355.157455 78.837756 
L 355.696075 79.677892 
L 356.019247 79.900417 
L 356.34242 79.849134 
L 356.665592 79.514358 
L 357.096488 78.696856 
L 358.281453 75.648032 
L 359.789591 71.637492 
L 360.543659 68.750719 
L 361.6209 63.44308 
L 362.590417 58.968489 
L 363.236761 56.936396 
L 363.667658 56.139864 
L 363.99083 55.859764 
L 364.098554 55.828491 
L 364.314002 115.603118 
L 364.744899 115.461188 
L 365.391243 114.947362 
L 366.145312 114.419683 
L 366.683932 114.318292 
L 369.377034 114.289623 
L 369.915655 114.079043 
L 370.454275 113.59932 
L 371.854688 112.074879 
L 372.285585 112.01082 
L 372.716481 112.205878 
L 373.255101 112.733315 
L 374.00917 113.830171 
L 375.517307 116.149597 
L 376.055928 116.523624 
L 376.594548 116.615523 
L 378.533582 116.579834 
L 378.964478 116.883423 
L 379.503099 117.563157 
L 380.364891 119.14025 
L 381.11896 120.35655 
L 381.65758 120.794156 
L 382.088477 120.869423 
L 382.519373 120.743619 
L 382.950269 120.422501 
L 383.381166 119.860119 
L 383.919786 118.757947 
L 386.612888 112.304931 
L 387.474681 110.193886 
L 389.736887 104.120456 
L 390.275507 103.475132 
L 390.706404 103.30627 
L 391.029576 103.389942 
L 391.352748 103.667547 
L 391.783644 104.367903 
L 392.322265 105.785005 
L 394.04585 111.087802 
L 394.369023 111.421928 
L 394.692195 111.466582 
L 395.015367 111.284725 
L 395.661712 110.554148 
L 396.738952 108.948471 
L 397.600745 107.177003 
L 399.001158 104.233256 
L 400.832468 101.024664 
L 401.15564 100.804952 
L 401.478812 100.863198 
L 401.801985 101.228836 
L 402.232881 102.16762 
L 402.879225 104.245536 
L 403.848742 107.39346 
L 404.279639 108.217812 
L 404.602811 108.445733 
L 404.818259 108.389021 
L 405.141431 107.987017 
L 405.572328 106.916719 
L 406.326396 104.138384 
L 407.295913 100.678546 
L 407.942258 99.15757 
L 408.373154 98.588275 
L 408.696326 98.446893 
L 409.019498 98.598251 
L 409.342671 99.071563 
L 409.773567 100.180734 
L 411.497152 105.511734 
L 411.928049 105.995498 
L 412.358945 106.160787 
L 413.00529 106.11992 
L 414.513427 105.917873 
L 415.159771 106.102575 
L 416.237012 106.510028 
L 416.667909 106.446206 
L 417.098805 106.164682 
L 417.637425 105.517348 
L 418.391494 104.216914 
L 421.623217 98.221283 
L 422.269561 97.562824 
L 422.700458 97.396166 
L 423.02363 97.482725 
L 423.346802 97.793797 
L 423.777698 98.580419 
L 424.424043 100.398197 
L 425.716732 104.252873 
L 426.363077 105.547532 
L 426.901697 106.17375 
L 427.224869 106.291273 
L 427.548041 106.177038 
L 427.871214 105.824383 
L 428.409834 104.805882 
L 429.810247 101.836924 
L 431.102936 99.500602 
L 432.180177 96.740848 
L 433.365142 93.920788 
L 434.226935 92.343106 
L 434.765555 91.763197 
L 435.196452 91.639397 
L 435.627348 91.792383 
L 436.812313 92.429877 
L 437.243209 92.351209 
L 437.78183 91.994708 
L 438.751347 90.990659 
L 441.013552 88.502326 
L 441.552173 88.281825 
L 441.983069 88.362835 
L 442.413966 88.696242 
L 443.168034 89.677162 
L 444.89162 92.312699 
L 445.645688 94.21769 
L 446.615205 96.671373 
L 447.046101 97.295689 
L 447.476998 97.522792 
L 447.907894 97.411756 
L 448.554238 96.901924 
L 449.416031 96.266558 
L 449.954652 96.149621 
L 450.385548 96.287461 
L 450.816444 96.684789 
L 451.247341 97.38016 
L 451.785961 98.660703 
L 452.755478 101.685573 
L 453.724995 104.489179 
L 454.263615 105.399534 
L 454.586787 105.614539 
L 454.90996 105.568297 
L 455.233132 105.283165 
L 455.771752 104.412097 
L 458.464855 99.287303 
L 459.111199 98.601954 
L 459.649819 98.338017 
L 461.157957 97.916242 
L 461.804301 97.294705 
L 462.773818 96.367775 
L 463.420163 96.115067 
L 465.46692 95.800286 
L 465.790092 96.101106 
L 466.220989 96.93296 
L 466.651885 98.297251 
L 467.405954 101.664193 
L 468.698643 107.52316 
L 469.452711 109.876205 
L 470.099056 111.261675 
L 470.529952 111.811184 
L 470.960849 112.004511 
L 471.284021 111.926604 
L 471.822641 111.512717 
L 472.899882 110.629394 
L 473.761675 110.293733 
L 474.623468 109.916095 
L 475.269812 109.384259 
L 475.808433 108.679454 
L 476.454777 107.411391 
L 477.101122 105.603339 
L 477.962914 102.457572 
L 479.040155 98.572844 
L 479.578776 97.444001 
L 479.901948 97.180191 
L 480.22512 97.232426 
L 480.548292 97.564018 
L 481.086913 98.558999 
L 482.918222 102.402594 
L 483.456843 102.991181 
L 483.995463 103.240592 
L 484.96498 103.489641 
L 485.395876 103.902922 
L 485.934497 104.828761 
L 487.550358 108.032632 
L 488.088979 108.516415 
L 488.519875 108.65009 
L 488.627599 134.07802 
L 488.735323 134.053835 
L 489.381668 134.0349 
L 490.028012 134.238704 
L 490.889805 134.546546 
L 491.320701 134.483613 
L 491.859322 134.123272 
L 494.4447 131.848727 
L 494.875596 131.708737 
L 495.198768 131.794252 
L 495.629665 132.217124 
L 496.276009 133.341762 
L 497.030078 134.599136 
L 497.460974 134.987015 
L 497.89187 135.120381 
L 498.430491 135.053231 
L 499.292284 134.680112 
L 500.046352 134.104033 
L 500.908145 133.137129 
L 501.877662 131.703132 
L 502.847179 129.803771 
L 503.816695 128.027844 
L 504.247592 127.604972 
L 504.678488 127.506644 
L 505.109384 127.722167 
L 505.648005 128.319902 
L 506.83297 129.781347 
L 507.263866 129.952869 
L 507.587038 129.855574 
L 507.910211 129.544096 
L 508.341107 128.801154 
L 508.987451 127.122976 
L 510.280141 123.550644 
L 510.818761 122.776501 
L 511.249657 122.539596 
L 511.896002 122.530274 
L 512.865519 122.505513 
L 513.727311 122.474953 
L 514.265932 122.694484 
L 514.804552 123.196552 
L 515.450897 124.150744 
L 517.282206 127.114583 
L 518.036275 127.868222 
L 518.467171 128.052395 
L 518.898068 127.971511 
L 519.328964 127.61833 
L 520.083032 126.612138 
L 521.160273 125.268451 
L 521.914342 124.631338 
L 522.452962 124.430716 
L 522.883859 124.479751 
L 523.530203 124.806222 
L 524.49972 125.27927 
L 525.361513 125.656883 
L 525.900133 126.148131 
L 526.654202 127.190269 
L 528.377787 129.609794 
L 529.131856 130.381451 
L 529.562752 130.57832 
L 529.993649 130.501893 
L 530.424545 130.126135 
L 530.963165 129.292345 
L 532.686751 126.232728 
L 533.117647 126.025171 
L 533.440819 126.091945 
L 533.871716 126.412079 
L 535.487577 127.909161 
L 535.918473 127.961566 
L 536.241646 127.800349 
L 536.564818 127.418679 
L 536.995714 126.51691 
L 537.534335 124.772681 
L 538.503851 120.611191 
L 539.473368 116.826162 
L 540.011989 115.542864 
L 540.335161 115.165326 
L 540.658333 115.100583 
L 540.981505 115.338156 
L 541.412402 116.07234 
L 541.951022 117.534473 
L 542.597367 119.944834 
L 543.351435 123.632446 
L 545.290469 133.750111 
L 545.829089 135.206736 
L 546.259986 135.743577 
L 546.583158 135.753374 
L 546.90633 135.397099 
L 547.229503 134.653387 
L 547.660399 133.071292 
L 548.414467 129.12945 
L 549.383984 124.070902 
L 549.922605 122.247072 
L 550.353501 121.461298 
L 550.676673 121.254008 
L 550.999846 121.3464 
L 551.323018 121.701377 
L 551.861638 122.732614 
L 553.154327 125.452886 
L 553.4775 125.710632 
L 553.800672 125.684481 
L 554.123844 125.369521 
L 554.55474 124.548371 
L 555.201085 122.712777 
L 556.92467 117.527647 
L 557.463291 116.59961 
L 557.894187 116.210971 
L 558.325083 116.095021 
L 558.863704 116.208276 
L 560.910462 117.124182 
L 561.556806 117.634519 
L 562.203151 118.490373 
L 565.327149 123.310416 
L 565.86577 123.685283 
L 566.296666 123.726746 
L 566.727562 123.531633 
L 567.266183 123.00798 
L 568.127975 121.762897 
L 569.420664 119.849534 
L 569.959285 119.37959 
L 570.390181 119.285769 
L 570.713354 119.438343 
L 571.036526 119.815772 
L 571.467422 120.681347 
L 572.113767 122.62722 
L 574.0528 129.042682 
L 574.483697 129.700536 
L 574.806869 129.879151 
L 575.130041 129.80016 
L 575.560937 129.349747 
L 576.099558 128.345608 
L 576.853627 126.344881 
L 578.146316 122.798672 
L 578.684936 121.917081 
L 579.223556 121.472685 
L 579.654453 121.407086 
L 580.085349 121.613227 
L 580.516245 122.112269 
L 581.16259 123.321537 
L 582.239831 125.388953 
L 582.778451 125.899195 
L 583.209348 125.99365 
L 583.640244 125.828006 
L 584.07114 125.4023 
L 584.609761 124.50837 
L 586.117898 121.631168 
L 586.548794 121.38913 
L 586.871967 121.437597 
L 587.302863 121.746346 
L 587.949208 122.560666 
L 588.811 124.043001 
L 590.750034 127.577337 
L 591.288654 128.120594 
L 591.719551 128.28978 
L 592.150447 128.198083 
L 592.581343 127.867644 
L 594.304929 126.167853 
L 594.735825 126.167753 
L 595.274445 126.450342 
L 597.428927 127.972234 
L 597.752099 127.911236 
L 598.075272 127.66374 
L 598.506168 126.989297 
L 599.044789 125.594376 
L 600.445202 121.508561 
L 600.768374 121.190303 
L 600.983822 121.184762 
L 601.306994 121.453871 
L 601.845615 122.379053 
L 602.707407 123.882934 
L 603.246028 124.434441 
L 603.892372 124.787106 
L 604.430993 124.855048 
L 604.969613 124.691016 
L 606.046854 124.266779 
L 606.585475 124.373913 
L 607.554991 124.659837 
L 607.985888 124.495899 
L 608.416784 124.06662 
L 609.063129 123.047996 
L 609.924921 121.703416 
L 610.355818 121.410194 
L 610.67899 121.457509 
L 611.002162 121.741818 
L 611.540783 122.623083 
L 612.510299 124.308238 
L 612.941196 124.581996 
L 612.941196 124.581996 
" clip-path="url(#p5181bc260c)" style="fill: none; stroke: #1f77b4; stroke-width: 1.5; stroke-linecap: square"/>
   </g>
   <g id="line2d_29">
    <path d="M 115.363636 193.292565 
L 115.794533 193.075191 
L 116.333153 192.456086 
L 116.979498 191.330792 
L 117.733566 189.526446 
L 118.703083 186.483872 
L 119.6726 183.632306 
L 120.318944 182.340824 
L 120.965289 181.474221 
L 121.611633 180.935766 
L 122.150254 180.746807 
L 123.012047 180.757254 
L 123.550667 180.66957 
L 124.089287 180.351949 
L 125.381976 179.404575 
L 125.920597 179.358603 
L 126.890114 179.627114 
L 127.536458 179.680449 
L 128.182803 179.483376 
L 128.936871 178.982753 
L 130.22956 177.79919 
L 137.447074 170.578051 
L 139.601556 167.74896 
L 140.140176 167.540065 
L 140.894245 167.563084 
L 144.018244 167.879994 
L 144.556864 167.5947 
L 145.418657 166.819403 
L 148.542655 163.64652 
L 150.158517 161.701385 
L 150.912585 161.165018 
L 151.666654 160.888877 
L 152.312998 160.882184 
L 152.851619 161.138509 
L 153.605687 161.852679 
L 154.252032 162.393373 
L 154.682928 162.505222 
L 155.113825 162.378748 
L 155.652445 161.957285 
L 156.621962 160.823289 
L 158.022375 159.157273 
L 158.776444 158.596303 
L 159.74596 158.176573 
L 160.715477 157.711482 
L 161.57727 156.989849 
L 162.331338 156.406389 
L 162.869959 156.265901 
L 163.408579 156.382659 
L 164.270372 156.846493 
L 165.132165 157.4936 
L 165.670785 158.143843 
L 166.209406 159.12494 
L 166.963474 161.030952 
L 168.040715 163.730737 
L 168.471611 164.357761 
L 168.902508 164.604884 
L 169.22568 164.54113 
L 169.656576 164.154269 
L 170.195197 163.269082 
L 172.13423 159.474848 
L 172.457403 159.318322 
L 172.780575 159.381559 
L 173.211471 159.760359 
L 173.857816 160.719473 
L 175.796849 163.766651 
L 176.658642 164.6911 
L 177.304987 165.046523 
L 177.843607 165.067054 
L 178.382227 164.808047 
L 178.920848 164.265118 
L 179.674917 163.116282 
L 181.07533 160.859439 
L 181.506226 160.55465 
L 181.829398 160.565513 
L 182.152571 160.805125 
L 182.583467 161.456261 
L 183.44526 163.381577 
L 184.091604 164.633158 
L 184.5225 165.105585 
L 184.953397 165.24126 
L 185.384293 165.080276 
L 185.922914 164.577544 
L 186.784706 163.38739 
L 187.969671 161.728621 
L 188.508292 161.326107 
L 189.046912 161.214543 
L 190.124153 161.35216 
L 190.985946 161.347217 
L 191.740014 161.135627 
L 192.494083 160.65609 
L 193.355876 159.798195 
L 194.217668 158.640101 
L 196.479874 155.302041 
L 197.126219 154.857369 
L 197.880287 154.637614 
L 198.957528 154.612555 
L 200.142493 154.77632 
L 201.004286 155.137039 
L 201.866078 155.743114 
L 203.158768 156.987662 
L 204.128284 157.827295 
L 204.774629 158.104304 
L 205.313249 158.078159 
L 205.959594 157.767386 
L 207.683179 156.754839 
L 208.329524 156.685584 
L 209.191316 156.864966 
L 209.945385 157.000412 
L 210.376281 156.890465 
L 210.807178 156.560224 
L 211.345798 155.840787 
L 212.961659 153.374009 
L 213.50028 153.021035 
L 214.0389 152.942873 
L 214.685245 153.091655 
L 216.193382 153.543452 
L 216.732003 153.454737 
L 217.486071 153.065667 
L 218.77876 152.346558 
L 219.532829 152.173929 
L 220.286897 152.208697 
L 221.902759 152.405934 
L 222.872276 152.178441 
L 223.734068 151.782749 
L 224.272689 151.312112 
L 224.919033 150.427793 
L 226.42717 148.167151 
L 227.288963 147.383784 
L 229.120273 145.852914 
L 229.658893 145.064336 
L 230.305238 143.629291 
L 232.890616 137.023052 
L 233.752408 135.78022 
L 235.691442 133.443794 
L 236.445511 131.685566 
L 237.7382 128.559495 
L 238.492268 127.349279 
L 239.138613 126.709045 
L 239.569509 126.518332 
L 239.677233 126.504371 
L 239.892681 146.038087 
L 240.431302 146.800074 
L 240.862198 147.040052 
L 241.18537 146.991536 
L 241.616267 146.667496 
L 242.370335 145.686934 
L 243.232128 144.612677 
L 243.770748 144.265139 
L 244.309369 144.205975 
L 246.032954 144.528406 
L 246.787023 144.750733 
L 248.510608 145.421068 
L 249.587849 145.673261 
L 250.988262 146.174072 
L 251.526883 146.04871 
L 252.280951 145.572336 
L 253.03502 145.158545 
L 253.465916 145.164445 
L 253.896813 145.436503 
L 254.435433 146.14897 
L 256.374467 149.246236 
L 256.697639 149.296828 
L 257.020811 149.137946 
L 257.451708 148.645305 
L 258.098052 147.488542 
L 258.852121 145.699585 
L 259.821637 142.738147 
L 261.006602 139.168467 
L 262.945636 134.025307 
L 263.915153 131.297267 
L 264.453773 130.323291 
L 264.88467 129.893143 
L 265.315566 129.740335 
L 265.746462 129.81593 
L 266.392807 130.219675 
L 267.470048 130.960158 
L 268.224116 131.152106 
L 269.516805 131.391844 
L 270.16315 131.728231 
L 270.70177 132.245398 
L 271.240391 133.092381 
L 271.994459 134.790942 
L 272.856252 136.643188 
L 273.287148 137.152898 
L 273.718045 137.311823 
L 274.148941 137.195493 
L 274.90301 136.67856 
L 276.087975 135.612644 
L 277.165216 134.634335 
L 277.703836 134.430458 
L 278.457905 134.452024 
L 279.104249 134.400054 
L 279.535145 134.150505 
L 279.966042 133.650796 
L 280.504662 132.603177 
L 281.151007 130.677737 
L 282.766868 125.198541 
L 283.197764 124.589973 
L 283.520937 124.509649 
L 283.844109 124.72941 
L 284.275005 125.400683 
L 285.136798 127.386795 
L 285.890867 128.941851 
L 286.537211 129.791918 
L 287.399004 130.492338 
L 288.583969 131.225285 
L 289.122589 131.303446 
L 289.553486 131.089773 
L 289.984382 130.512635 
L 290.415278 129.475005 
L 290.953899 127.48495 
L 292.03114 122.189965 
L 292.677484 119.586605 
L 293.10838 118.605352 
L 293.431553 118.319479 
L 293.754725 118.381462 
L 294.077897 118.71753 
L 294.616518 119.649126 
L 296.663275 123.513166 
L 297.201896 124.02202 
L 297.632792 124.107904 
L 298.063688 123.897203 
L 298.602309 123.280897 
L 299.464102 121.823179 
L 300.541342 120.077478 
L 302.5881 117.472409 
L 303.018997 117.237089 
L 303.449893 117.230813 
L 304.527134 117.365014 
L 305.173478 117.090952 
L 306.573891 116.167552 
L 307.004788 115.559678 
L 307.435684 114.573813 
L 308.082029 112.377457 
L 310.021062 105.03604 
L 310.559683 103.956501 
L 310.882855 103.668321 
L 311.206027 103.677407 
L 311.529199 103.979117 
L 311.960096 104.773731 
L 312.821888 107.077689 
L 313.575957 108.904003 
L 314.114578 109.729476 
L 314.545474 110.070705 
L 314.97637 110.144491 
L 315.407267 109.946569 
L 315.838163 109.450205 
L 316.376783 108.404133 
L 318.746713 102.994649 
L 319.608506 101.83844 
L 320.147126 101.401118 
L 320.578023 101.306101 
L 321.008919 101.467418 
L 321.439815 101.880217 
L 321.978436 102.744286 
L 322.517056 104.021246 
L 323.271125 106.504638 
L 325.317883 113.858608 
L 325.856503 114.958479 
L 326.287399 115.448443 
L 326.718296 115.590665 
L 327.149192 115.421386 
L 327.687813 114.886735 
L 329.950018 112.248367 
L 330.704087 111.210167 
L 331.673604 109.411552 
L 333.612637 105.619991 
L 333.93581 105.42764 
L 334.258982 105.475205 
L 334.689878 105.869505 
L 335.443947 107.049406 
L 336.413464 108.441266 
L 337.167532 109.112377 
L 338.137049 109.606374 
L 338.675669 109.966163 
L 339.106566 110.485798 
L 339.645186 111.537287 
L 340.399255 113.620492 
L 341.261048 115.911884 
L 341.691944 116.521131 
L 342.015116 116.600435 
L 342.338288 116.3285 
L 342.769185 115.466303 
L 343.415529 113.4496 
L 345.031391 108.110849 
L 345.677735 106.762601 
L 346.108631 106.349469 
L 346.431804 106.318124 
L 346.8627 106.586533 
L 348.263113 107.817747 
L 348.586285 107.754689 
L 349.017182 107.373804 
L 349.555802 106.517262 
L 351.387112 103.263586 
L 352.033456 102.650612 
L 353.541593 101.455683 
L 355.372903 99.31041 
L 355.803799 99.208277 
L 356.34242 99.331014 
L 356.988764 99.763831 
L 358.71235 101.157946 
L 359.143246 101.149655 
L 359.574142 100.914793 
L 360.112763 100.341207 
L 361.297728 98.94525 
L 361.728624 98.83094 
L 362.15952 98.991604 
L 363.45221 99.737781 
L 364.098554 99.798961 
L 364.314002 122.993138 
L 364.852623 123.258025 
L 365.283519 123.254874 
L 365.714415 123.043168 
L 366.253036 122.473695 
L 367.653449 120.634555 
L 367.976621 120.60892 
L 368.299793 120.835006 
L 368.73069 121.474872 
L 369.592482 123.355204 
L 371.208344 126.865814 
L 371.63924 127.356751 
L 371.962412 127.405815 
L 372.285585 127.130703 
L 372.716481 126.283444 
L 373.47055 124.03264 
L 374.224618 122.006998 
L 374.655515 121.340095 
L 374.978687 121.142205 
L 375.301859 121.224778 
L 375.625031 121.600215 
L 376.055928 122.558568 
L 376.594548 124.421859 
L 378.425858 131.558209 
L 378.74903 131.935353 
L 378.964478 131.944919 
L 379.28765 131.622201 
L 379.718547 130.693294 
L 380.580339 128.04224 
L 382.196201 123.140414 
L 382.842545 121.732209 
L 383.381166 120.993491 
L 384.350682 120.153588 
L 386.505164 118.389567 
L 387.151509 118.193529 
L 387.690129 118.260015 
L 388.22875 118.597677 
L 389.736887 119.774921 
L 390.383231 119.854809 
L 391.029576 119.703257 
L 391.783644 119.263123 
L 393.291782 117.973015 
L 394.04585 117.077053 
L 394.692195 115.933321 
L 395.446263 114.116294 
L 397.923917 107.517465 
L 398.462538 106.758187 
L 398.893434 106.445835 
L 399.216606 106.422897 
L 399.539779 106.601971 
L 399.970675 107.143368 
L 400.61702 108.415586 
L 401.909709 111.558602 
L 403.52557 115.796526 
L 403.956466 116.247097 
L 404.279639 116.289294 
L 404.710535 116.038247 
L 405.356879 115.281633 
L 406.110948 114.041208 
L 407.188189 111.677384 
L 407.834533 110.493948 
L 408.373154 109.976687 
L 408.911774 109.836078 
L 409.773567 109.939063 
L 410.527636 110.192353 
L 411.066256 110.612788 
L 411.604877 111.354653 
L 412.251221 112.661698 
L 413.328462 114.926395 
L 413.759358 115.363248 
L 414.082531 115.383043 
L 414.405703 115.120022 
L 414.836599 114.356832 
L 415.37522 112.863511 
L 416.344736 109.294 
L 417.206529 106.294727 
L 417.637425 105.400509 
L 417.960598 105.145073 
L 418.176046 105.186627 
L 418.499218 105.548848 
L 418.930114 106.492577 
L 419.684183 108.882166 
L 421.623217 115.384744 
L 422.269561 116.764077 
L 422.808182 117.431682 
L 423.239078 117.670021 
L 423.669974 117.688304 
L 424.316319 117.457191 
L 425.39356 117.039564 
L 426.039904 117.023664 
L 426.578525 117.212714 
L 427.332593 117.748569 
L 427.978938 118.145486 
L 428.409834 118.156108 
L 428.840731 117.87558 
L 429.379351 117.147381 
L 431.102936 114.356826 
L 431.533833 114.179138 
L 431.857005 114.260496 
L 432.395625 114.67968 
L 433.04197 115.162568 
L 433.365142 115.192317 
L 433.688314 115.019986 
L 434.119211 114.49763 
L 434.873279 113.101097 
L 436.596865 109.80782 
L 437.027761 109.358355 
L 437.458658 109.232582 
L 437.889554 109.409202 
L 439.613139 110.550498 
L 440.259484 110.866518 
L 440.798104 111.404036 
L 441.659897 112.6948 
L 442.737138 114.226501 
L 443.383482 114.826517 
L 443.814379 115.00278 
L 444.245275 114.930794 
L 444.676171 114.546382 
L 445.107068 113.793886 
L 445.645688 112.320405 
L 447.476998 106.560181 
L 447.907894 106.101824 
L 448.231066 106.072631 
L 448.554238 106.298479 
L 448.985135 106.973639 
L 449.523755 108.345897 
L 451.355065 113.693551 
L 452.001409 114.711371 
L 453.07865 115.882511 
L 453.832719 116.829004 
L 454.694511 118.384265 
L 455.340856 119.437755 
L 455.771752 119.751108 
L 456.094925 119.726671 
L 456.525821 119.412808 
L 458.249406 117.776576 
L 459.111199 117.115136 
L 459.865268 116.226021 
L 460.942509 114.553007 
L 463.312438 110.534393 
L 463.743335 110.322047 
L 464.174231 110.385433 
L 464.605128 110.687269 
L 465.359196 111.556769 
L 466.544161 113.267989 
L 467.29823 114.745132 
L 468.375471 117.43411 
L 470.314504 122.324922 
L 471.068573 123.610259 
L 473.438503 126.660053 
L 473.977123 127.02379 
L 474.408019 127.057281 
L 474.838916 126.876095 
L 475.48526 126.328988 
L 476.239329 125.699798 
L 476.670225 125.612308 
L 476.993398 125.764356 
L 477.424294 126.282705 
L 478.070638 127.582036 
L 479.040155 129.525854 
L 479.471052 129.883602 
L 479.794224 129.836021 
L 480.117396 129.511588 
L 480.548292 128.710334 
L 482.271878 124.944136 
L 482.702774 124.670227 
L 483.133671 124.710973 
L 483.887739 125.156342 
L 484.42636 125.349095 
L 484.749532 125.271238 
L 485.180428 124.880807 
L 485.719049 124.01281 
L 486.688565 122.386997 
L 487.119462 122.010233 
L 487.550358 121.878923 
L 488.519875 121.939004 
L 488.735323 164.697154 
L 489.381668 165.86281 
L 489.812564 166.240647 
L 490.135736 166.290347 
L 490.458908 166.152058 
L 490.889805 165.709764 
L 491.428425 164.792984 
L 492.07477 163.206909 
L 493.152011 159.767826 
L 494.98332 154.024522 
L 496.168285 150.707407 
L 496.706906 149.756192 
L 497.137802 149.410866 
L 497.568698 149.40669 
L 498.107319 149.694196 
L 498.969111 150.161665 
L 499.507732 150.199066 
L 500.046352 149.992256 
L 500.584973 149.541484 
L 502.200834 147.900088 
L 502.524006 147.931985 
L 502.847179 148.184073 
L 503.278075 148.857826 
L 503.816695 150.167866 
L 504.570764 152.688062 
L 505.540281 156.835869 
L 507.048418 163.303337 
L 507.802487 165.504438 
L 508.341107 166.497128 
L 508.772003 166.903095 
L 509.095176 166.96621 
L 509.418348 166.824253 
L 509.849244 166.345276 
L 510.495589 165.155377 
L 512.11145 161.892486 
L 512.542346 161.581702 
L 512.865519 161.577954 
L 513.404139 161.863734 
L 514.158208 162.26785 
L 514.589104 162.245343 
L 515.02 161.999791 
L 515.558621 161.424791 
L 516.204965 160.401028 
L 517.38993 158.35297 
L 517.820827 158.081297 
L 518.143999 158.16135 
L 518.574895 158.599192 
L 520.083032 160.582728 
L 520.513929 160.66078 
L 520.837101 160.512238 
L 521.267997 160.051358 
L 521.806618 159.12513 
L 523.9611 154.967992 
L 524.49972 154.516212 
L 524.930616 154.459632 
L 525.361513 154.668928 
L 527.946891 156.791743 
L 528.485511 157.88435 
L 530.101373 161.741059 
L 530.532269 162.094333 
L 530.855441 162.055745 
L 531.178613 161.755901 
L 531.60951 160.975083 
L 532.14813 159.467524 
L 533.009923 156.187838 
L 534.302612 151.260831 
L 534.841232 150.012441 
L 535.272129 149.506566 
L 535.595301 149.41715 
L 535.918473 149.566826 
L 536.34937 150.102906 
L 536.995714 151.415779 
L 538.180679 153.89575 
L 539.365644 155.662402 
L 540.873781 157.62873 
L 543.351435 160.381154 
L 543.782332 160.464986 
L 544.213228 160.336655 
L 545.182745 159.706163 
L 546.044538 159.256935 
L 546.583158 159.168415 
L 547.014054 159.298385 
L 547.444951 159.664472 
L 548.091295 160.603305 
L 549.060812 162.044335 
L 549.491708 162.304747 
L 549.814881 162.26772 
L 550.245777 161.924834 
L 550.892121 160.998424 
L 551.969362 159.460423 
L 552.507983 159.017158 
L 552.938879 158.878949 
L 553.369775 158.974897 
L 553.800672 159.330983 
L 554.447016 160.257039 
L 555.308809 161.475109 
L 555.739705 161.728869 
L 556.062878 161.709735 
L 556.493774 161.436131 
L 557.140119 160.655622 
L 558.217359 158.901534 
L 559.725497 156.06714 
L 561.66453 152.065838 
L 562.095427 151.70492 
L 562.418599 151.655483 
L 562.741771 151.791454 
L 563.172667 152.230748 
L 563.819012 153.315975 
L 565.86577 157.16752 
L 566.619838 157.906337 
L 567.373907 158.331879 
L 568.020251 158.456409 
L 568.666596 158.334818 
L 569.31294 157.981589 
L 569.959285 157.362695 
L 570.497905 156.522075 
L 571.036526 155.263891 
L 571.790594 152.85711 
L 572.652387 150.155359 
L 573.083283 149.359861 
L 573.406456 149.13047 
L 573.729628 149.223721 
L 574.0528 149.615247 
L 574.483697 150.540583 
L 575.022317 152.245679 
L 575.88411 155.853658 
L 576.638178 158.816343 
L 577.069075 159.81153 
L 577.392247 160.090376 
L 577.607695 160.060605 
L 577.930867 159.750992 
L 578.469488 158.815484 
L 582.024383 152.037917 
L 583.317072 150.005575 
L 584.394313 148.278068 
L 584.825209 147.943536 
L 585.148381 147.898952 
L 585.471554 148.046617 
L 585.90245 148.546984 
L 586.44107 149.609654 
L 588.27238 153.770449 
L 588.703276 154.216853 
L 589.026448 154.341898 
L 589.349621 154.263249 
L 589.672793 153.959168 
L 590.103689 153.188854 
L 590.750034 151.391131 
L 591.719551 148.583541 
L 592.150447 147.911533 
L 592.473619 147.769937 
L 592.796791 147.941506 
L 593.227688 148.593924 
L 593.874032 150.189551 
L 595.489894 154.520291 
L 596.028514 155.336538 
L 596.45941 155.58927 
L 596.782583 155.530962 
L 597.213479 155.156504 
L 597.859824 154.177752 
L 598.937064 152.508477 
L 599.691133 151.758233 
L 601.845615 149.956853 
L 602.384235 149.037665 
L 602.922856 147.586555 
L 603.676924 144.729265 
L 605.185061 138.856181 
L 605.831406 137.214572 
L 606.370026 136.403206 
L 606.800923 136.084346 
L 607.231819 136.008435 
L 607.662715 136.149779 
L 608.093612 136.506101 
L 608.739956 137.384002 
L 610.355818 139.732719 
L 611.002162 140.862665 
L 611.863955 142.993852 
L 612.510299 144.340698 
L 612.833472 144.656126 
L 612.941196 144.692234 
L 612.941196 144.692234 
" clip-path="url(#p5181bc260c)" style="fill: none; stroke: #ff7f0e; stroke-width: 1.5; stroke-linecap: square"/>
   </g>
   <g id="line2d_30">
    <path d="M 115.363636 227.772 
L 116.117705 226.218516 
L 117.733566 222.241741 
L 118.918531 219.317083 
L 119.457152 218.521074 
L 120.103496 218.002971 
L 121.288461 217.183473 
L 122.473426 215.995663 
L 123.442943 214.744962 
L 124.304736 213.23488 
L 127.213286 207.567786 
L 127.751906 207.134053 
L 128.075079 207.102184 
L 128.398251 207.267738 
L 128.829147 207.792139 
L 129.475492 209.086297 
L 130.660457 211.646645 
L 131.091353 212.161335 
L 131.414525 212.306865 
L 131.737698 212.232909 
L 132.06087 211.945144 
L 132.491766 211.267441 
L 133.245835 209.549047 
L 134.646248 206.332802 
L 137.770247 200.135463 
L 139.601556 195.736917 
L 140.355625 194.498904 
L 140.894245 193.974447 
L 141.325141 193.876053 
L 141.648314 194.013641 
L 142.07921 194.448706 
L 142.833279 195.622335 
L 144.664588 198.581534 
L 145.418657 199.42523 
L 146.065001 199.843856 
L 146.603622 199.962256 
L 147.034518 199.855223 
L 147.465414 199.521069 
L 148.111759 198.653569 
L 148.865828 197.643196 
L 149.296724 197.394077 
L 149.619896 197.43293 
L 150.050792 197.767043 
L 150.697137 198.683139 
L 152.205274 201.022336 
L 152.636171 201.340147 
L 152.959343 201.354371 
L 153.282515 201.14083 
L 153.713411 200.511559 
L 155.221549 197.748281 
L 155.544721 197.670903 
L 155.867893 197.870184 
L 156.29879 198.507479 
L 156.945134 199.985394 
L 158.668719 204.18115 
L 159.20734 204.945229 
L 159.638236 205.224035 
L 160.069133 205.198993 
L 160.500029 204.909966 
L 161.038649 204.270299 
L 161.792718 203.007863 
L 163.839476 199.266793 
L 164.378096 198.873376 
L 165.024441 198.712576 
L 165.670785 198.794217 
L 166.209406 199.110325 
L 166.85575 199.809986 
L 167.609819 200.61515 
L 168.040715 200.756235 
L 168.363887 200.638463 
L 168.794784 200.210255 
L 169.548852 199.043184 
L 171.164714 196.548353 
L 171.811058 195.903692 
L 172.241954 195.785952 
L 172.565127 195.90576 
L 172.996023 196.334903 
L 173.642368 197.401724 
L 175.258229 200.322391 
L 175.689125 200.747154 
L 176.012298 200.846754 
L 176.33547 200.706823 
L 176.658642 200.299305 
L 177.089538 199.35516 
L 177.951331 196.692977 
L 178.7054 194.703618 
L 179.24402 193.911115 
L 179.674917 193.646501 
L 180.105813 193.651588 
L 180.536709 193.885269 
L 181.07533 194.450821 
L 182.583467 196.278357 
L 183.014363 196.352 
L 183.44526 196.178275 
L 185.599741 194.673707 
L 186.569258 193.652107 
L 187.538775 192.745843 
L 188.831464 191.936921 
L 189.585533 191.638985 
L 190.124153 191.689794 
L 190.662773 191.992677 
L 191.847738 192.748698 
L 192.386359 192.751527 
L 192.924979 192.480864 
L 193.4636 191.964728 
L 194.109944 191.020798 
L 194.864013 189.475662 
L 196.37215 186.253535 
L 196.91077 185.691379 
L 197.341667 185.591852 
L 197.772563 185.792027 
L 198.311184 186.394776 
L 199.065252 187.702194 
L 202.081527 193.552629 
L 203.158768 194.954096 
L 203.697388 195.344115 
L 204.128284 195.383047 
L 204.559181 195.147596 
L 204.990077 194.647686 
L 205.528697 193.69143 
L 206.282766 191.859757 
L 207.898627 187.755935 
L 208.544972 186.772706 
L 209.083592 186.311416 
L 209.622213 186.159221 
L 210.053109 186.27408 
L 210.484005 186.61009 
L 211.13035 187.459529 
L 212.638487 189.628852 
L 214.362073 191.440087 
L 215.116141 191.983964 
L 215.762486 192.177491 
L 217.162899 192.265297 
L 218.024692 192.155863 
L 219.101932 192.014332 
L 219.748277 192.219023 
L 220.61007 192.796207 
L 221.471862 193.639342 
L 222.225931 194.702184 
L 223.626344 196.77483 
L 224.380413 197.45375 
L 225.457654 198.072627 
L 226.211722 198.298273 
L 226.750343 198.244231 
L 227.181239 197.972794 
L 227.612135 197.405365 
L 228.043032 196.47633 
L 228.689376 194.427495 
L 230.305238 188.804541 
L 230.736134 188.039407 
L 231.059306 187.778484 
L 231.382478 187.771725 
L 231.705651 187.982956 
L 232.244271 188.677472 
L 233.644684 190.739724 
L 234.075581 190.967688 
L 234.398753 190.912873 
L 234.721925 190.652296 
L 235.152821 190.012389 
L 235.90689 188.379579 
L 237.091855 185.876873 
L 237.7382 185.015797 
L 238.169096 184.746566 
L 238.492268 184.74371 
L 238.923165 185.017425 
L 239.461785 185.707155 
L 240.323578 186.870753 
L 240.754474 187.11645 
L 241.077646 187.066743 
L 241.400819 186.803193 
L 241.831715 186.137037 
L 242.478059 184.636929 
L 243.447576 182.408041 
L 243.878473 181.944093 
L 244.201645 181.90423 
L 244.524817 182.105168 
L 245.063438 182.805998 
L 246.463851 184.823199 
L 246.894747 185.103161 
L 247.217919 185.113068 
L 247.541092 184.922689 
L 247.971988 184.366626 
L 248.941505 182.496597 
L 249.587849 181.542167 
L 250.12647 181.169089 
L 250.557366 181.115512 
L 251.095986 181.272572 
L 252.173227 181.921153 
L 253.03502 182.310403 
L 254.650881 182.955866 
L 256.266743 183.874482 
L 257.128535 184.736457 
L 260.467982 188.382904 
L 260.898878 188.525404 
L 261.329775 188.43389 
L 261.868395 188.023062 
L 262.622464 187.059644 
L 264.669221 184.220603 
L 265.638738 183.419525 
L 266.715979 182.508285 
L 268.224116 181.064262 
L 268.762737 180.913683 
L 269.193633 181.003521 
L 269.732254 181.336132 
L 271.024943 182.290763 
L 271.455839 182.338569 
L 271.886735 182.162236 
L 272.425356 181.653642 
L 274.364389 179.43461 
L 274.90301 179.325344 
L 275.549354 179.461933 
L 276.518871 179.890797 
L 277.165216 180.407021 
L 278.565629 181.781643 
L 278.888801 181.819862 
L 279.319697 181.601091 
L 279.858318 180.964962 
L 280.504662 179.826949 
L 281.258731 178.001198 
L 282.659144 174.307269 
L 282.982316 173.984314 
L 283.305489 173.995617 
L 283.628661 174.313364 
L 284.167281 175.326031 
L 285.244522 178.051293 
L 286.968107 182.434568 
L 287.506728 183.142516 
L 287.937624 183.33119 
L 288.368521 183.223609 
L 288.907141 182.779872 
L 289.553486 181.935136 
L 290.307554 180.560826 
L 292.462036 176.112704 
L 293.000656 175.590544 
L 293.539277 175.370617 
L 293.970173 175.441284 
L 294.40107 175.737597 
L 295.262862 176.721204 
L 296.016931 177.438562 
L 297.094172 178.035007 
L 298.386861 178.692746 
L 298.925481 178.673401 
L 299.571826 178.392444 
L 300.541342 177.700423 
L 301.187687 176.937307 
L 301.834032 175.777266 
L 302.803548 173.444953 
L 303.880789 170.951199 
L 304.41941 170.20311 
L 304.850306 169.916596 
L 305.281202 169.8589 
L 305.819823 170.017883 
L 306.358443 170.394154 
L 306.897064 171.016642 
L 307.651132 172.276992 
L 309.051545 174.675318 
L 309.69789 175.349209 
L 310.344234 175.691465 
L 310.990579 175.759517 
L 311.636923 175.60521 
L 312.283268 175.22172 
L 313.899129 174.007755 
L 314.330026 174.020463 
L 314.868646 174.312927 
L 315.622715 175.066851 
L 316.484507 176.249038 
L 317.992645 178.427836 
L 318.423541 178.639229 
L 318.746713 178.584189 
L 319.17761 178.238702 
L 319.823954 177.321608 
L 321.008919 175.594696 
L 321.655264 175.019491 
L 322.732504 174.435964 
L 323.486573 173.889851 
L 324.132918 173.128714 
L 324.886986 171.881794 
L 327.36464 167.356568 
L 327.903261 166.936399 
L 328.441881 166.814198 
L 328.980502 166.927102 
L 329.519122 167.265148 
L 330.057742 167.887145 
L 330.704087 169.020155 
L 331.889052 171.213794 
L 332.535396 171.897523 
L 333.074017 172.177767 
L 333.612637 172.208503 
L 334.043534 171.997651 
L 334.582154 171.406851 
L 335.982567 169.610309 
L 336.521188 169.385952 
L 337.275256 169.380271 
L 337.921601 169.563113 
L 338.567945 170.017085 
L 339.645186 170.881764 
L 339.968358 170.887258 
L 340.291531 170.6901 
L 340.722427 170.127283 
L 342.338288 167.520286 
L 342.769185 167.346019 
L 343.200081 167.454656 
L 343.630977 167.822485 
L 344.169598 168.640329 
L 344.815942 170.098601 
L 346.216356 173.480958 
L 346.970424 174.640272 
L 347.832217 175.52008 
L 350.309871 177.624742 
L 351.279388 178.527941 
L 353.110697 179.782406 
L 353.757042 179.966947 
L 354.187938 179.889386 
L 354.618834 179.621353 
L 355.157455 178.993642 
L 355.696075 178.01492 
L 356.450144 176.084701 
L 358.066005 171.659014 
L 358.604626 170.847429 
L 359.035522 170.542914 
L 359.466418 170.511564 
L 360.005039 170.753913 
L 361.513176 171.639039 
L 362.15952 171.646907 
L 363.021313 171.63409 
L 363.45221 171.864353 
L 363.883106 172.344795 
L 364.52945 173.455282 
L 365.498967 175.127751 
L 365.929864 175.476169 
L 366.253036 175.480521 
L 366.576208 175.247788 
L 367.007104 174.58884 
L 367.653449 173.035499 
L 368.946138 169.734162 
L 369.377034 169.230385 
L 369.700207 169.213797 
L 370.023379 169.536718 
L 370.454275 170.466531 
L 371.10062 172.644263 
L 372.824205 178.892165 
L 373.362826 179.963002 
L 373.685998 180.223196 
L 374.00917 180.169314 
L 374.332342 179.82086 
L 374.870963 178.755035 
L 376.163652 175.921324 
L 376.594548 175.451163 
L 376.91772 175.330821 
L 377.240893 175.408834 
L 377.671789 175.794005 
L 378.210409 176.640964 
L 380.149443 180.133703 
L 380.580339 180.288225 
L 381.011236 180.15331 
L 381.65758 179.643043 
L 382.627097 178.919104 
L 383.165717 178.82106 
L 383.596614 178.982687 
L 384.135234 179.493092 
L 384.997027 180.742519 
L 386.074268 182.192038 
L 387.151509 183.217535 
L 388.013301 183.787821 
L 388.551922 183.930809 
L 389.090542 183.857251 
L 389.844611 183.496501 
L 391.245024 182.57956 
L 392.106817 181.695821 
L 393.184058 180.599403 
L 393.830402 180.284696 
L 394.476747 180.246022 
L 395.123091 180.452795 
L 395.769436 180.915587 
L 397.277573 182.18244 
L 397.708469 182.222249 
L 398.139366 182.005444 
L 398.570262 181.511186 
L 399.108882 180.509585 
L 399.970675 178.292194 
L 400.724744 176.501249 
L 401.15564 175.927973 
L 401.478812 175.812023 
L 401.801985 175.981918 
L 402.232881 176.612387 
L 402.879225 178.144595 
L 404.279639 181.622222 
L 404.925983 182.644272 
L 405.356879 183.008474 
L 405.787776 183.078035 
L 406.218672 182.853192 
L 406.757293 182.243039 
L 408.480878 180.015414 
L 409.019498 179.706252 
L 409.450395 179.68625 
L 409.881291 179.93411 
L 410.312187 180.496378 
L 410.850808 181.631438 
L 411.820325 184.413197 
L 412.682117 186.721475 
L 413.220738 187.614166 
L 413.651634 187.916659 
L 414.082531 187.89477 
L 414.621151 187.581107 
L 416.344736 186.143488 
L 417.098805 185.265832 
L 417.852874 184.071457 
L 418.606942 182.495137 
L 419.684183 179.618261 
L 420.438252 177.788324 
L 420.869148 177.194734 
L 421.19232 177.072383 
L 421.515493 177.249209 
L 421.838665 177.706768 
L 422.377285 178.954387 
L 423.56225 182.591498 
L 424.531767 185.2484 
L 425.070387 186.109619 
L 425.39356 186.310055 
L 425.716732 186.265701 
L 426.039904 185.999757 
L 426.470801 185.359168 
L 427.009421 184.179644 
L 427.76349 181.894014 
L 429.271627 177.014225 
L 429.702523 176.300631 
L 430.13342 175.975361 
L 430.67204 175.916753 
L 432.072453 175.968483 
L 432.718798 175.761909 
L 433.257418 175.323973 
L 433.796039 174.525941 
L 434.657831 172.674251 
L 435.4119 171.243222 
L 435.95052 170.687197 
L 436.489141 170.484966 
L 437.135485 170.520147 
L 437.674106 170.75099 
L 438.212726 171.251033 
L 438.859071 172.207251 
L 440.259484 174.372032 
L 441.659897 176.042516 
L 442.306241 176.494621 
L 443.06031 176.701008 
L 444.245275 177.00799 
L 445.214792 177.241055 
L 445.753412 177.152377 
L 446.292033 176.816804 
L 447.046101 176.008044 
L 447.907894 175.116327 
L 448.33879 174.910458 
L 448.769687 174.961989 
L 449.200583 175.315676 
L 449.739203 176.182357 
L 450.70872 178.416065 
L 451.462789 179.896717 
L 452.001409 180.506125 
L 452.432306 180.685662 
L 452.755478 180.625436 
L 453.07865 180.380388 
L 453.509547 179.752129 
L 454.155891 178.288391 
L 455.125408 176.104425 
L 455.556304 175.60712 
L 455.879476 175.489467 
L 456.202649 175.574906 
L 456.633545 175.952396 
L 457.27989 176.916423 
L 458.788027 179.386142 
L 459.218923 179.659498 
L 459.542095 179.633401 
L 459.865268 179.393072 
L 460.296164 178.752079 
L 460.942509 177.267421 
L 462.235198 174.166639 
L 462.773818 173.47144 
L 463.204714 173.254985 
L 463.635611 173.295259 
L 464.174231 173.611325 
L 464.820576 174.263323 
L 466.544161 176.230348 
L 466.867333 176.254815 
L 467.190506 176.061129 
L 467.621402 175.446641 
L 468.160022 174.16446 
L 469.129539 171.028248 
L 470.422228 167.010428 
L 471.068573 165.60993 
L 471.499469 165.055523 
L 471.930365 164.858598 
L 472.253538 164.94239 
L 472.684434 165.324415 
L 473.223054 166.152897 
L 473.869399 167.566281 
L 474.731192 170.049195 
L 476.023881 173.858106 
L 476.670225 175.097927 
L 477.31657 175.867967 
L 477.962914 176.32476 
L 478.501535 176.441402 
L 478.932431 176.295347 
L 479.471052 175.797482 
L 480.22512 174.679819 
L 482.379602 171.137025 
L 482.918222 170.783851 
L 483.456843 170.690297 
L 484.318635 170.799246 
L 485.395876 171.170875 
L 487.550358 172.225207 
L 488.196703 172.976867 
L 489.381668 174.421036 
L 490.028012 174.816512 
L 490.674357 174.942065 
L 493.044287 175.077425 
L 495.306492 175.720129 
L 497.460974 176.255274 
L 498.215043 176.33737 
L 498.322767 175.942149 
L 499.18456 177.166912 
L 499.72318 177.605439 
L 500.154076 177.723593 
L 500.692697 177.608616 
L 501.446765 177.150447 
L 503.170351 176.005833 
L 503.924419 175.842981 
L 506.078901 175.644536 
L 506.725246 175.422398 
L 507.156142 175.07847 
L 507.587038 174.464446 
L 508.125659 173.299089 
L 509.526072 170.059396 
L 509.956968 169.633139 
L 510.280141 169.569029 
L 510.603313 169.708787 
L 511.034209 170.155812 
L 511.788278 171.353866 
L 512.865519 173.012209 
L 513.619587 173.744733 
L 515.666345 175.373829 
L 516.420414 176.00622 
L 516.85131 176.12611 
L 517.282206 176.011805 
L 517.820827 175.600616 
L 520.190757 173.381825 
L 520.621653 173.287693 
L 521.052549 173.401522 
L 521.59117 173.792952 
L 522.452962 174.445421 
L 522.883859 174.497932 
L 523.314755 174.304989 
L 523.9611 173.716332 
L 525.253789 172.537543 
L 526.223305 171.658031 
L 526.977374 170.631428 
L 528.916408 167.651808 
L 529.455028 167.339098 
L 529.993649 167.311972 
L 530.532269 167.50566 
L 531.178613 167.972518 
L 532.363578 168.906651 
L 532.794475 168.945498 
L 533.225371 168.742301 
L 534.087164 167.95211 
L 534.625784 167.582026 
L 535.056681 167.508324 
L 535.487577 167.644918 
L 536.133922 168.116352 
L 537.211162 168.921387 
L 538.396127 169.429253 
L 540.442885 170.207162 
L 541.412402 170.20531 
L 543.459159 170.063272 
L 543.890056 170.321284 
L 544.428676 170.930696 
L 545.075021 172.051044 
L 546.044538 174.26468 
L 547.014054 176.316198 
L 547.444951 176.81634 
L 547.768123 176.933598 
L 548.091295 176.809159 
L 548.414467 176.446953 
L 548.845364 175.637286 
L 549.599432 173.625735 
L 550.892121 170.161499 
L 551.64619 168.756026 
L 552.400259 167.800565 
L 552.938879 167.446503 
L 553.369775 167.39464 
L 553.908396 167.573484 
L 555.201085 168.392108 
L 556.816946 169.415686 
L 557.140119 169.394454 
L 557.463291 169.187033 
L 557.894187 168.594843 
L 558.540532 167.163626 
L 560.264117 163.037631 
L 560.910462 162.066569 
L 561.341358 161.789664 
L 561.66453 161.840411 
L 561.987702 162.129439 
L 562.418599 162.85698 
L 563.064943 164.464463 
L 565.219425 170.264515 
L 565.650321 170.883908 
L 565.973494 171.028754 
L 566.296666 170.858274 
L 566.619838 170.386117 
L 567.158459 169.11884 
L 568.2357 166.477373 
L 568.77432 165.703763 
L 569.420664 165.191216 
L 570.605629 164.621368 
L 571.251974 164.526412 
L 571.898319 164.695878 
L 572.760111 165.215489 
L 573.51418 165.935807 
L 574.268248 167.015248 
L 575.022317 168.04513 
L 575.345489 168.241514 
L 575.668662 168.195348 
L 575.991834 167.880497 
L 576.42273 167.070099 
L 577.176799 164.991954 
L 577.930867 163.109865 
L 578.361764 162.610687 
L 578.577212 162.587236 
L 578.900384 162.852409 
L 579.223556 163.455029 
L 579.762177 165.019053 
L 581.378038 170.177753 
L 582.024383 171.40362 
L 582.455279 171.817577 
L 582.778451 171.904618 
L 583.209348 171.757785 
L 583.855692 171.19354 
L 585.90245 168.997447 
L 586.548794 167.641531 
L 588.703276 162.671078 
L 589.457345 161.425256 
L 589.995965 160.93364 
L 590.319137 160.866428 
L 590.64231 160.977469 
L 591.073206 161.367967 
L 591.827275 162.457526 
L 592.796791 163.820791 
L 593.335412 164.225273 
L 593.766308 164.275996 
L 594.197205 164.067322 
L 594.735825 163.485729 
L 596.782583 160.822502 
L 597.536651 160.415942 
L 598.613892 160.133109 
L 599.583409 160.120836 
L 601.414718 160.351591 
L 601.845615 160.720666 
L 602.276511 161.413069 
L 602.922856 162.980944 
L 603.784648 165.081552 
L 604.215545 165.622839 
L 604.538717 165.688637 
L 604.861889 165.459625 
L 605.292786 164.761573 
L 605.93913 163.167632 
L 607.662715 158.682718 
L 608.093612 158.146915 
L 608.416784 158.05225 
L 608.739956 158.232484 
L 609.170853 158.837315 
L 610.786714 161.657388 
L 611.325334 162.033171 
L 612.402575 162.426246 
L 612.941196 162.452423 
L 613.372092 162.278505 
L 614.018437 161.72326 
L 615.203402 160.683305 
L 617.142435 159.493105 
L 617.78878 159.382225 
L 618.542848 159.478871 
L 619.620089 159.874554 
L 620.589606 160.151099 
L 622.097743 160.198006 
L 622.636364 160.213076 
L 622.636364 160.213076 
" clip-path="url(#p5181bc260c)" style="fill: none; stroke: #2ca02c; stroke-width: 1.5; stroke-linecap: square"/>
   </g>
   <g id="line2d_31">
    <path d="M 115.363636 225.309647 
L 116.333153 221.34936 
L 116.764049 220.253843 
L 117.087222 219.845678 
L 117.30267 219.78923 
L 117.518118 219.905462 
L 117.84129 220.38247 
L 118.272187 221.48133 
L 120.21122 227.19404 
L 120.642117 227.60277 
L 120.965289 227.612904 
L 121.288461 227.387099 
L 121.719358 226.774395 
L 122.365702 225.391569 
L 123.873839 221.961727 
L 124.627908 220.880175 
L 125.812873 219.656044 
L 126.890114 218.817393 
L 127.85963 218.357029 
L 128.613699 218.223436 
L 129.583216 218.32422 
L 130.552733 218.355862 
L 131.199077 218.193486 
L 131.737698 217.836169 
L 132.276318 217.130367 
L 132.922663 215.793862 
L 133.892179 213.695201 
L 134.323076 213.189284 
L 134.646248 213.077283 
L 134.96942 213.200499 
L 135.400317 213.71149 
L 135.938937 214.851967 
L 136.693006 217.167855 
L 137.985695 221.224782 
L 138.524315 222.212698 
L 138.955211 222.624929 
L 139.386108 222.77783 
L 140.247901 222.762149 
L 141.756038 222.631629 
L 142.186934 222.27198 
L 142.725555 221.516348 
L 145.203209 217.478204 
L 145.741829 217.108993 
L 146.280449 217.015107 
L 147.465414 216.965474 
L 148.004035 216.622959 
L 149.619896 215.32137 
L 150.050792 215.310381 
L 150.589413 215.557184 
L 151.235757 216.161534 
L 152.636171 217.617404 
L 153.067067 217.727871 
L 153.605687 217.578295 
L 154.898376 217.045948 
L 155.544721 217.114324 
L 156.406514 217.471509 
L 157.37603 217.8453 
L 157.806927 217.800599 
L 158.237823 217.538813 
L 158.776444 216.91831 
L 160.823201 214.156743 
L 161.361822 213.939373 
L 162.223614 213.909283 
L 163.624027 213.796531 
L 164.593544 213.61968 
L 165.132165 213.309845 
L 166.748026 212.105086 
L 167.071198 212.18993 
L 167.502095 212.568306 
L 168.148439 213.544148 
L 169.333404 215.400683 
L 169.872025 215.873896 
L 170.302921 215.995327 
L 170.733817 215.855604 
L 171.164714 215.449341 
L 171.811058 214.442991 
L 173.642368 211.323452 
L 175.042781 209.406346 
L 175.689125 208.843479 
L 176.33547 208.581412 
L 176.87409 208.574706 
L 177.412711 208.789534 
L 177.951331 209.265519 
L 179.567192 210.970847 
L 180.105813 211.070616 
L 181.398502 211.137421 
L 182.260295 211.557521 
L 183.014363 211.85496 
L 183.552984 211.825342 
L 184.091604 211.530601 
L 184.737949 210.891439 
L 185.815189 209.472628 
L 186.569258 208.095358 
L 187.431051 205.963149 
L 188.616016 203.135214 
L 189.26236 202.111421 
L 189.693257 201.73492 
L 190.016429 201.665042 
L 190.339601 201.806982 
L 190.770497 202.329631 
L 191.416842 203.653135 
L 192.601807 206.198529 
L 193.248152 207.04419 
L 194.00222 207.624038 
L 194.971737 208.093293 
L 195.83353 208.258143 
L 197.880287 208.28216 
L 198.526632 207.936352 
L 199.927045 206.831758 
L 200.573389 206.085561 
L 201.542906 204.527641 
L 202.512423 203.112307 
L 203.158768 202.530805 
L 203.697388 202.307294 
L 205.420973 201.875343 
L 206.067318 201.26654 
L 206.929111 200.114517 
L 208.2218 198.364341 
L 208.652696 198.16006 
L 208.975868 198.255514 
L 209.299041 198.584773 
L 209.729937 199.353908 
L 210.59173 201.507893 
L 211.453522 203.40836 
L 211.992143 204.123371 
L 212.530763 204.451602 
L 212.961659 204.473514 
L 213.50028 204.26802 
L 215.547038 203.148164 
L 217.593795 202.676614 
L 218.563312 202.504367 
L 219.532829 202.581937 
L 221.795035 202.908652 
L 222.764551 202.687074 
L 224.164965 202.100554 
L 225.34993 201.663234 
L 225.88855 201.722175 
L 226.319446 201.988573 
L 226.858067 202.603827 
L 228.473928 204.760192 
L 228.904824 204.903339 
L 229.227997 204.798657 
L 229.658893 204.359406 
L 230.197513 203.352911 
L 230.951582 201.279762 
L 232.244271 197.495729 
L 232.675167 196.848108 
L 232.99834 196.770121 
L 233.213788 196.942252 
L 233.53696 197.545197 
L 233.967857 198.930487 
L 234.829649 202.821604 
L 235.799166 206.853725 
L 236.445511 208.678497 
L 236.984131 209.591043 
L 237.307303 209.836629 
L 237.630475 209.839209 
L 237.953648 209.612171 
L 238.492268 208.873342 
L 239.354061 207.672905 
L 239.784957 207.425851 
L 240.215854 207.445898 
L 240.862198 207.764492 
L 242.154887 208.691196 
L 243.232128 209.495145 
L 243.663024 209.529342 
L 244.093921 209.294902 
L 244.740265 208.563528 
L 245.709782 207.466639 
L 246.356127 207.119641 
L 247.864264 206.75305 
L 248.510608 206.768876 
L 249.156953 207.060555 
L 250.12647 207.523521 
L 250.66509 207.482675 
L 251.526883 207.087781 
L 254.327709 205.591541 
L 255.189502 204.755791 
L 256.266743 203.684739 
L 256.805363 203.430854 
L 257.451708 203.384471 
L 259.929362 203.599213 
L 260.68343 204.035319 
L 262.083843 204.933474 
L 262.622464 204.967153 
L 263.161084 204.72 
L 263.699705 204.204653 
L 264.669221 202.853374 
L 265.315566 202.08414 
L 265.746462 201.875394 
L 266.069635 201.934747 
L 266.500531 202.28775 
L 267.2546 203.333311 
L 268.008668 204.236303 
L 268.439564 204.477226 
L 268.870461 204.49277 
L 269.409081 204.267534 
L 270.486322 203.71954 
L 270.917218 203.737113 
L 271.348115 203.960229 
L 271.886735 204.496125 
L 272.748528 205.718697 
L 273.825769 207.195747 
L 274.364389 207.578228 
L 274.795286 207.627511 
L 275.333906 207.437931 
L 276.087975 207.15169 
L 276.518871 207.208839 
L 277.057491 207.534268 
L 277.919284 208.068217 
L 278.350181 208.053086 
L 278.781077 207.77421 
L 279.319697 207.082423 
L 279.966042 205.829935 
L 281.905075 201.556522 
L 282.228248 201.376705 
L 282.55142 201.476218 
L 282.874592 201.846224 
L 283.305489 202.696073 
L 284.059557 204.801426 
L 285.567694 209.132275 
L 286.106315 210.108741 
L 286.537211 210.484639 
L 286.860383 210.477113 
L 287.183556 210.193948 
L 287.614452 209.380271 
L 288.153072 207.762111 
L 289.984382 201.628215 
L 290.738451 200.090601 
L 291.384795 199.180153 
L 291.815691 198.847881 
L 292.138864 198.796221 
L 292.462036 198.939055 
L 292.892932 199.435203 
L 293.431553 200.470207 
L 295.586034 205.207218 
L 296.124655 205.788519 
L 296.555551 206.007385 
L 296.986448 206.016676 
L 297.525068 205.790642 
L 299.571826 204.609575 
L 300.433618 204.261519 
L 300.972239 203.790715 
L 301.618583 202.853017 
L 302.911272 200.807063 
L 303.342169 200.529451 
L 303.665341 200.536236 
L 304.096237 200.82967 
L 304.634858 201.570807 
L 306.250719 204.096209 
L 306.681615 204.355228 
L 307.112512 204.368051 
L 307.543408 204.126613 
L 307.974305 203.622132 
L 308.620649 202.45108 
L 309.590166 200.683916 
L 310.021062 200.30547 
L 310.451959 200.251196 
L 310.882855 200.458725 
L 311.421475 200.979434 
L 312.06782 201.919096 
L 313.683681 204.525737 
L 314.006853 204.666207 
L 314.330026 204.598416 
L 314.760922 204.207153 
L 315.299542 203.325574 
L 316.053611 201.583888 
L 317.777196 197.383565 
L 318.315817 196.678368 
L 318.746713 196.419442 
L 319.17761 196.409312 
L 319.608506 196.614807 
L 320.147126 197.126692 
L 320.901195 198.216517 
L 323.809745 203.311764 
L 324.45609 205.054535 
L 325.210158 207.828537 
L 326.395123 212.180248 
L 326.933744 213.320334 
L 327.36464 213.705768 
L 327.687813 213.718995 
L 328.118709 213.44375 
L 328.657329 212.741144 
L 329.303674 211.471589 
L 331.56588 206.464201 
L 332.212224 205.873152 
L 332.858569 205.582479 
L 333.504913 205.550059 
L 334.258982 205.779525 
L 335.443947 206.182119 
L 335.982567 206.144936 
L 336.521188 205.876065 
L 337.167532 205.278624 
L 338.029325 204.150711 
L 338.891118 202.618172 
L 340.076083 200.481678 
L 340.506979 200.092229 
L 340.937875 199.99196 
L 341.368772 200.128789 
L 342.015116 200.627857 
L 342.769185 201.542157 
L 344.385046 203.762534 
L 344.815942 203.971479 
L 345.354563 203.973449 
L 346.647252 203.609907 
L 348.047665 203.282268 
L 349.448078 203.312205 
L 350.417595 203.426655 
L 351.171664 203.766955 
L 352.033456 204.155758 
L 352.572077 204.165986 
L 353.218421 203.938526 
L 353.97249 203.46172 
L 354.618834 202.769197 
L 355.265179 201.672175 
L 356.34242 199.709392 
L 356.773316 199.384696 
L 357.096488 199.414764 
L 357.527385 199.771939 
L 358.496901 201.116546 
L 359.25097 201.962602 
L 360.005039 202.474339 
L 360.543659 202.588984 
L 361.08228 202.439451 
L 361.728624 201.982187 
L 363.236761 200.846127 
L 363.99083 200.557796 
L 364.52945 200.564116 
L 365.175795 200.812988 
L 366.253036 201.286756 
L 366.683932 201.266376 
L 367.114828 201.039157 
L 367.545725 200.580761 
L 368.084345 199.69055 
L 368.946138 197.72034 
L 370.454275 194.186687 
L 371.10062 193.234595 
L 371.854688 192.571345 
L 373.685998 191.430396 
L 374.332342 191.274032 
L 374.870963 191.356777 
L 375.409583 191.707455 
L 375.948204 192.394264 
L 376.594548 193.640681 
L 378.210409 197.007055 
L 378.74903 197.617832 
L 379.28765 197.919659 
L 381.11896 198.598042 
L 382.196201 199.173496 
L 382.842545 199.24493 
L 384.135234 199.251989 
L 384.781579 199.544711 
L 385.643371 200.220008 
L 386.505164 201.174929 
L 387.366957 202.524932 
L 388.336474 204.034924 
L 388.76737 204.390142 
L 389.198266 204.459936 
L 389.629163 204.288399 
L 393.399506 202.014128 
L 393.938126 202.101977 
L 394.584471 202.490478 
L 395.769436 203.249862 
L 396.41578 203.371644 
L 397.062125 203.258004 
L 397.600745 202.896697 
L 398.139366 202.211159 
L 400.078399 199.277408 
L 400.724744 198.929244 
L 401.909709 198.677096 
L 402.556053 198.387012 
L 403.094674 197.873284 
L 403.848742 196.739364 
L 404.925983 195.072155 
L 405.356879 194.715722 
L 405.680052 194.656563 
L 406.003224 194.808812 
L 406.43412 195.357289 
L 406.972741 196.527471 
L 408.80405 201.056923 
L 409.342671 201.722223 
L 409.773567 201.956424 
L 410.204463 201.929346 
L 410.63536 201.67329 
L 413.113014 199.71042 
L 414.082531 199.215649 
L 414.513427 199.277374 
L 414.836599 199.550187 
L 415.267496 200.245756 
L 415.91384 201.861506 
L 418.176046 208.123866 
L 418.606942 208.750143 
L 418.930114 208.947168 
L 419.253287 208.886509 
L 419.576459 208.576192 
L 420.007355 207.831141 
L 420.6537 206.21433 
L 421.730941 202.798109 
L 423.454526 197.240895 
L 424.316319 195.325589 
L 425.39356 193.561362 
L 426.578525 191.936344 
L 427.224869 191.400781 
L 427.655766 191.303405 
L 427.978938 191.414636 
L 428.30211 191.721357 
L 428.733006 192.493353 
L 429.163903 193.733631 
L 429.810247 196.450475 
L 431.749281 205.686884 
L 432.287901 206.937511 
L 432.611074 207.272077 
L 432.934246 207.291561 
L 433.257418 207.004023 
L 433.688314 206.189114 
L 434.334659 204.330726 
L 435.4119 201.213445 
L 436.058244 200.008891 
L 436.704589 199.269624 
L 437.243209 198.931189 
L 437.78183 198.838063 
L 438.32045 198.97789 
L 438.966795 199.378805 
L 439.828587 200.170021 
L 442.090793 202.465137 
L 443.922103 203.591791 
L 445.107068 204.58705 
L 446.507481 205.291586 
L 447.046101 205.433652 
L 447.476998 205.308821 
L 447.907894 204.887735 
L 448.554238 203.795544 
L 449.631479 201.878957 
L 450.277824 201.200639 
L 450.816444 200.966946 
L 451.247341 200.995438 
L 451.785961 201.267776 
L 453.186374 202.165675 
L 453.724995 202.177955 
L 454.479063 201.913166 
L 455.664028 201.485167 
L 458.680303 200.916817 
L 459.218923 201.075947 
L 459.757544 201.456539 
L 460.296164 202.12373 
L 461.050233 203.485033 
L 461.804301 204.768045 
L 462.235198 205.15127 
L 462.55837 205.216413 
L 462.881542 205.100451 
L 463.312438 204.700681 
L 463.851059 203.848558 
L 464.497403 202.302686 
L 465.46692 199.161744 
L 466.544161 195.873656 
L 467.405954 193.974657 
L 468.160022 192.764064 
L 468.698643 192.212059 
L 469.237263 191.96042 
L 469.883608 191.963093 
L 470.637676 192.203718 
L 471.176297 192.581003 
L 471.714917 193.267733 
L 472.361262 194.560453 
L 473.223054 196.86343 
L 475.916157 204.534124 
L 476.454777 205.128034 
L 476.885673 205.295058 
L 477.31657 205.243205 
L 477.85519 204.934096 
L 478.501535 204.290679 
L 479.901948 202.75625 
L 480.332844 202.583778 
L 480.656017 202.634909 
L 481.086913 202.969289 
L 481.625533 203.765995 
L 483.133671 206.313463 
L 483.564567 206.577641 
L 483.887739 206.560687 
L 484.210911 206.35524 
L 484.641808 205.795367 
L 485.180428 204.667571 
L 485.934497 202.446053 
L 488.196703 195.270326 
L 489.381668 192.392783 
L 489.920288 191.546537 
L 490.351184 191.200551 
L 490.782081 191.133116 
L 491.212977 191.28357 
L 491.751598 191.695787 
L 492.505666 192.589667 
L 494.229252 194.784041 
L 495.521941 196.288489 
L 496.491457 197.824548 
L 497.35325 199.607881 
L 498.215043 201.664469 
L 498.430491 195.707439 
L 500.046352 192.705895 
L 500.477249 192.365872 
L 500.800421 192.351918 
L 501.123593 192.56901 
L 501.554489 193.218775 
L 502.09311 194.512163 
L 503.924419 199.336797 
L 504.46304 200.080458 
L 504.893936 200.350734 
L 505.324833 200.342942 
L 505.863453 200.040125 
L 509.310624 197.2221 
L 511.249657 195.407734 
L 512.003726 194.885826 
L 512.434622 194.798757 
L 512.865519 194.946785 
L 513.296415 195.348826 
L 513.94276 196.32469 
L 515.127724 198.194782 
L 515.774069 198.760618 
L 516.420414 199.000169 
L 517.282206 199.033611 
L 519.113516 198.968232 
L 519.652136 199.243779 
L 521.267997 200.363697 
L 521.59117 200.275511 
L 522.022066 199.875025 
L 522.560686 198.947753 
L 523.207031 197.342014 
L 525.253789 191.757013 
L 525.792409 191.121123 
L 526.223305 190.921608 
L 526.977374 190.885238 
L 528.485511 190.994576 
L 528.916408 191.267827 
L 529.455028 191.93189 
L 529.993649 192.985878 
L 530.747717 195.007189 
L 531.824958 197.945794 
L 532.255854 198.664451 
L 532.579027 198.918263 
L 532.902199 198.906008 
L 533.225371 198.632937 
L 533.656267 197.914225 
L 534.410336 196.055184 
L 535.379853 193.78691 
L 535.918473 193.057067 
L 536.34937 192.793922 
L 536.780266 192.764929 
L 537.426611 192.992089 
L 538.611576 193.454291 
L 539.25792 193.435308 
L 540.227437 193.343987 
L 540.658333 193.542386 
L 541.08923 193.996433 
L 541.62785 194.899403 
L 543.674608 198.777844 
L 544.105504 199.139682 
L 544.5364 199.216287 
L 544.967297 199.009132 
L 545.505917 198.453735 
L 546.690882 197.142036 
L 547.337227 196.786897 
L 548.091295 196.640994 
L 548.73764 196.707593 
L 549.491708 197.032319 
L 550.784397 197.887475 
L 551.430742 198.517568 
L 552.184811 199.605918 
L 553.692948 201.926218 
L 554.231568 202.330966 
L 554.55474 202.348395 
L 554.877913 202.162047 
L 555.308809 201.602324 
L 556.062878 200.082374 
L 557.032394 198.256609 
L 557.678739 197.485102 
L 558.217359 197.154593 
L 558.648256 197.141447 
L 559.079152 197.364527 
L 559.725497 198.00758 
L 560.910462 199.200707 
L 563.172667 200.96429 
L 563.711288 201.10485 
L 564.142184 201.005468 
L 564.573081 200.681759 
L 565.111701 199.968476 
L 566.081218 198.158121 
L 567.050735 196.490655 
L 567.589355 195.91303 
L 568.127975 195.637343 
L 568.77432 195.607761 
L 569.851561 195.652484 
L 570.497905 195.40235 
L 571.251974 194.830624 
L 572.436939 193.646757 
L 573.191008 192.610992 
L 575.022317 189.752136 
L 575.345489 189.643683 
L 575.668662 189.777166 
L 575.991834 190.175071 
L 576.42273 191.1205 
L 576.961351 192.888016 
L 579.115832 200.859577 
L 579.546729 201.577491 
L 579.869901 201.810697 
L 580.193073 201.784656 
L 580.516245 201.518441 
L 580.947142 200.849548 
L 581.70121 199.129223 
L 583.101624 195.831226 
L 583.747968 194.799671 
L 584.394313 194.150451 
L 585.040657 193.793362 
L 585.579278 193.713867 
L 586.010174 193.842053 
L 586.548794 194.259009 
L 588.164656 195.753929 
L 590.426862 196.994422 
L 591.073206 197.76112 
L 591.719551 198.872486 
L 593.766308 202.737999 
L 594.197205 202.947143 
L 594.520377 202.888616 
L 594.951273 202.589129 
L 596.351686 201.127953 
L 598.29072 199.220444 
L 598.721616 199.118698 
L 599.260237 199.242177 
L 600.66065 199.74898 
L 601.19927 199.614272 
L 601.953339 199.133835 
L 602.707407 198.715934 
L 603.246028 198.662254 
L 604.000097 198.882446 
L 604.754165 199.068067 
L 605.292786 198.997439 
L 606.154578 198.618993 
L 608.093612 197.743709 
L 608.739956 197.698494 
L 609.386301 197.909685 
L 610.14037 198.136304 
L 610.571266 198.001491 
L 611.002162 197.546929 
L 611.540783 196.523292 
L 613.264368 192.693356 
L 613.695264 192.299177 
L 614.126161 192.19781 
L 614.557057 192.340616 
L 615.095678 192.786385 
L 615.742022 193.632614 
L 617.681056 196.577578 
L 618.004228 196.636064 
L 618.3274 196.473819 
L 618.758296 195.950435 
L 619.404641 194.710803 
L 621.990019 189.169281 
L 622.420915 188.816099 
L 622.636364 188.755962 
L 622.636364 188.755962 
" clip-path="url(#p5181bc260c)" style="fill: none; stroke: #d62728; stroke-width: 1.5; stroke-linecap: square"/>
   </g>
   <g id="patch_3">
    <path d="M 90 237.096 
L 90 31.968 
" style="fill: none; stroke: #000000; stroke-width: 0.8; stroke-linejoin: miter; stroke-linecap: square"/>
   </g>
   <g id="patch_4">
    <path d="M 648 237.096 
L 648 31.968 
" style="fill: none; stroke: #000000; stroke-width: 0.8; stroke-linejoin: miter; stroke-linecap: square"/>
   </g>
   <g id="patch_5">
    <path d="M 90 237.096 
L 648 237.096 
" style="fill: none; stroke: #000000; stroke-width: 0.8; stroke-linejoin: miter; stroke-linecap: square"/>
   </g>
   <g id="patch_6">
    <path d="M 90 31.968 
L 648 31.968 
" style="fill: none; stroke: #000000; stroke-width: 0.8; stroke-linejoin: miter; stroke-linecap: square"/>
   </g>
   <g id="text_15">
    <!-- Phase 1 -->
    <g style="fill: #ff0000" transform="translate(172.517639 128.82327)scale(0.12 -0.12)">
     <defs>
      <path id="DejaVuSans-50" d="M 1259 4147 
L 1259 2394 
L 2053 2394 
Q 2494 2394 2734 2622 
Q 2975 2850 2975 3272 
Q 2975 3691 2734 3919 
Q 2494 4147 2053 4147 
L 1259 4147 
z
M 628 4666 
L 2053 4666 
Q 2838 4666 3239 4311 
Q 3641 3956 3641 3272 
Q 3641 2581 3239 2228 
Q 2838 1875 2053 1875 
L 1259 1875 
L 1259 0 
L 628 0 
L 628 4666 
z
" transform="scale(0.015625)"/>
      <path id="DejaVuSans-68" d="M 3513 2113 
L 3513 0 
L 2938 0 
L 2938 2094 
Q 2938 2591 2744 2837 
Q 2550 3084 2163 3084 
Q 1697 3084 1428 2787 
Q 1159 2491 1159 1978 
L 1159 0 
L 581 0 
L 581 4863 
L 1159 4863 
L 1159 2956 
Q 1366 3272 1645 3428 
Q 1925 3584 2291 3584 
Q 2894 3584 3203 3211 
Q 3513 2838 3513 2113 
z
" transform="scale(0.015625)"/>
     </defs>
     <use xlink:href="#DejaVuSans-50"/>
     <use xlink:href="#DejaVuSans-68" x="60.302734"/>
     <use xlink:href="#DejaVuSans-61" x="123.681641"/>
     <use xlink:href="#DejaVuSans-73" x="184.960938"/>
     <use xlink:href="#DejaVuSans-65" x="237.060547"/>
     <use xlink:href="#DejaVuSans-20" x="298.583984"/>
     <use xlink:href="#DejaVuSans-31" x="330.371094"/>
    </g>
   </g>
   <g id="text_16">
    <!-- Phase 2 -->
    <g style="fill: #ff0000" transform="translate(280.241727 64.537289)scale(0.12 -0.12)">
     <use xlink:href="#DejaVuSans-50"/>
     <use xlink:href="#DejaVuSans-68" x="60.302734"/>
     <use xlink:href="#DejaVuSans-61" x="123.681641"/>
     <use xlink:href="#DejaVuSans-73" x="184.960938"/>
     <use xlink:href="#DejaVuSans-65" x="237.060547"/>
     <use xlink:href="#DejaVuSans-20" x="298.583984"/>
     <use xlink:href="#DejaVuSans-32" x="330.371094"/>
    </g>
   </g>
   <g id="text_17">
    <!-- Phase 3 -->
    <g style="fill: #ff0000" transform="translate(414.896836 72.922417)scale(0.12 -0.12)">
     <use xlink:href="#DejaVuSans-50"/>
     <use xlink:href="#DejaVuSans-68" x="60.302734"/>
     <use xlink:href="#DejaVuSans-61" x="123.681641"/>
     <use xlink:href="#DejaVuSans-73" x="184.960938"/>
     <use xlink:href="#DejaVuSans-65" x="237.060547"/>
     <use xlink:href="#DejaVuSans-20" x="298.583984"/>
     <use xlink:href="#DejaVuSans-33" x="330.371094"/>
    </g>
   </g>
   <g id="text_18">
    <!-- Phase 4 -->
    <g style="fill: #ff0000" transform="translate(501.076106 100.872844)scale(0.12 -0.12)">
     <use xlink:href="#DejaVuSans-50"/>
     <use xlink:href="#DejaVuSans-68" x="60.302734"/>
     <use xlink:href="#DejaVuSans-61" x="123.681641"/>
     <use xlink:href="#DejaVuSans-73" x="184.960938"/>
     <use xlink:href="#DejaVuSans-65" x="237.060547"/>
     <use xlink:href="#DejaVuSans-20" x="298.583984"/>
     <use xlink:href="#DejaVuSans-34" x="330.371094"/>
    </g>
   </g>
   <g id="legend_1">
    <g id="patch_7">
     <path d="M 551.289062 98.6805 
L 641 98.6805 
Q 643 98.6805 643 96.6805 
L 643 38.968 
Q 643 36.968 641 36.968 
L 551.289062 36.968 
Q 549.289062 36.968 549.289062 38.968 
L 549.289062 96.6805 
Q 549.289062 98.6805 551.289062 98.6805 
z
" style="fill: #ffffff; opacity: 0.8; stroke: #cccccc; stroke-linejoin: miter"/>
    </g>
    <g id="line2d_32">
     <path d="M 553.289062 45.066438 
L 563.289062 45.066438 
L 573.289062 45.066438 
" style="fill: none; stroke: #1f77b4; stroke-width: 1.5; stroke-linecap: square"/>
    </g>
    <g id="text_19">
     <!-- Ours -->
     <g transform="translate(581.289062 48.566438)scale(0.1 -0.1)">
      <defs>
       <path id="DejaVuSans-4f" d="M 2522 4238 
Q 1834 4238 1429 3725 
Q 1025 3213 1025 2328 
Q 1025 1447 1429 934 
Q 1834 422 2522 422 
Q 3209 422 3611 934 
Q 4013 1447 4013 2328 
Q 4013 3213 3611 3725 
Q 3209 4238 2522 4238 
z
M 2522 4750 
Q 3503 4750 4090 4092 
Q 4678 3434 4678 2328 
Q 4678 1225 4090 567 
Q 3503 -91 2522 -91 
Q 1538 -91 948 565 
Q 359 1222 359 2328 
Q 359 3434 948 4092 
Q 1538 4750 2522 4750 
z
" transform="scale(0.015625)"/>
      </defs>
      <use xlink:href="#DejaVuSans-4f"/>
      <use xlink:href="#DejaVuSans-75" x="78.710938"/>
      <use xlink:href="#DejaVuSans-72" x="142.089844"/>
      <use xlink:href="#DejaVuSans-73" x="183.203125"/>
     </g>
    </g>
    <g id="line2d_33">
     <path d="M 553.289062 59.744563 
L 563.289062 59.744563 
L 573.289062 59.744563 
" style="fill: none; stroke: #ff7f0e; stroke-width: 1.5; stroke-linecap: square"/>
    </g>
    <g id="text_20">
     <!-- MAPPO+CR -->
     <g transform="translate(581.289062 63.244563)scale(0.1 -0.1)">
      <defs>
       <path id="DejaVuSans-41" d="M 2188 4044 
L 1331 1722 
L 3047 1722 
L 2188 4044 
z
M 1831 4666 
L 2547 4666 
L 4325 0 
L 3669 0 
L 3244 1197 
L 1141 1197 
L 716 0 
L 50 0 
L 1831 4666 
z
" transform="scale(0.015625)"/>
       <path id="DejaVuSans-2b" d="M 2944 4013 
L 2944 2272 
L 4684 2272 
L 4684 1741 
L 2944 1741 
L 2944 0 
L 2419 0 
L 2419 1741 
L 678 1741 
L 678 2272 
L 2419 2272 
L 2419 4013 
L 2944 4013 
z
" transform="scale(0.015625)"/>
       <path id="DejaVuSans-43" d="M 4122 4306 
L 4122 3641 
Q 3803 3938 3442 4084 
Q 3081 4231 2675 4231 
Q 1875 4231 1450 3742 
Q 1025 3253 1025 2328 
Q 1025 1406 1450 917 
Q 1875 428 2675 428 
Q 3081 428 3442 575 
Q 3803 722 4122 1019 
L 4122 359 
Q 3791 134 3420 21 
Q 3050 -91 2638 -91 
Q 1578 -91 968 557 
Q 359 1206 359 2328 
Q 359 3453 968 4101 
Q 1578 4750 2638 4750 
Q 3056 4750 3426 4639 
Q 3797 4528 4122 4306 
z
" transform="scale(0.015625)"/>
      </defs>
      <use xlink:href="#DejaVuSans-4d"/>
      <use xlink:href="#DejaVuSans-41" x="86.279297"/>
      <use xlink:href="#DejaVuSans-50" x="154.6875"/>
      <use xlink:href="#DejaVuSans-50" x="214.990234"/>
      <use xlink:href="#DejaVuSans-4f" x="275.292969"/>
      <use xlink:href="#DejaVuSans-2b" x="354.003906"/>
      <use xlink:href="#DejaVuSans-43" x="437.792969"/>
      <use xlink:href="#DejaVuSans-52" x="507.617188"/>
     </g>
    </g>
    <g id="line2d_34">
     <path d="M 553.289062 74.422687 
L 563.289062 74.422687 
L 573.289062 74.422687 
" style="fill: none; stroke: #2ca02c; stroke-width: 1.5; stroke-linecap: square"/>
    </g>
    <g id="text_21">
     <!-- IMPALA -->
     <g transform="translate(581.289062 77.922687)scale(0.1 -0.1)">
      <defs>
       <path id="DejaVuSans-4c" d="M 628 4666 
L 1259 4666 
L 1259 531 
L 3531 531 
L 3531 0 
L 628 0 
L 628 4666 
z
" transform="scale(0.015625)"/>
      </defs>
      <use xlink:href="#DejaVuSans-49"/>
      <use xlink:href="#DejaVuSans-4d" x="29.492188"/>
      <use xlink:href="#DejaVuSans-50" x="115.771484"/>
      <use xlink:href="#DejaVuSans-41" x="169.699219"/>
      <use xlink:href="#DejaVuSans-4c" x="238.107422"/>
      <use xlink:href="#DejaVuSans-41" x="296.070312"/>
     </g>
    </g>
    <g id="line2d_35">
     <path d="M 553.289062 89.100813 
L 563.289062 89.100813 
L 573.289062 89.100813 
" style="fill: none; stroke: #d62728; stroke-width: 1.5; stroke-linecap: square"/>
    </g>
    <g id="text_22">
     <!-- MAPPO -->
     <g transform="translate(581.289062 92.600813)scale(0.1 -0.1)">
      <use xlink:href="#DejaVuSans-4d"/>
      <use xlink:href="#DejaVuSans-41" x="86.279297"/>
      <use xlink:href="#DejaVuSans-50" x="154.6875"/>
      <use xlink:href="#DejaVuSans-50" x="214.990234"/>
      <use xlink:href="#DejaVuSans-4f" x="275.292969"/>
     </g>
    </g>
   </g>
  </g>
 </g>
 <defs>
  <clipPath id="p5181bc260c">
   <rect x="90" y="31.968" width="558" height="205.128"/>
  </clipPath>
 </defs>
</svg>
